G04 #@! TF.GenerationSoftware,KiCad,Pcbnew,(5.0.2)-1*
G04 #@! TF.CreationDate,2019-02-09T21:32:43-06:00*
G04 #@! TF.ProjectId,Nixie-ProtoBoard,4e697869-652d-4507-926f-746f426f6172,1.0*
G04 #@! TF.SameCoordinates,Original*
G04 #@! TF.FileFunction,Legend,Bot*
G04 #@! TF.FilePolarity,Positive*
%FSLAX46Y46*%
G04 Gerber Fmt 4.6, Leading zero omitted, Abs format (unit mm)*
G04 Created by KiCad (PCBNEW (5.0.2)-1) date 2/9/2019 9:32:43 PM*
%MOMM*%
%LPD*%
G01*
G04 APERTURE LIST*
%ADD10C,0.300000*%
%ADD11C,0.120000*%
%ADD12C,0.150000*%
G04 APERTURE END LIST*
D10*
X60089142Y-66216571D02*
X59803428Y-67216571D01*
X59517714Y-66502285D01*
X59232000Y-67216571D01*
X58946285Y-66216571D01*
X58517714Y-66216571D02*
X58232000Y-67216571D01*
X57946285Y-66502285D01*
X57660571Y-67216571D01*
X57374857Y-66216571D01*
X56946285Y-66216571D02*
X56660571Y-67216571D01*
X56374857Y-66502285D01*
X56089142Y-67216571D01*
X55803428Y-66216571D01*
X55232000Y-67073714D02*
X55160571Y-67145142D01*
X55232000Y-67216571D01*
X55303428Y-67145142D01*
X55232000Y-67073714D01*
X55232000Y-67216571D01*
X54517714Y-67216571D02*
X54517714Y-65716571D01*
X54017714Y-66788000D01*
X53517714Y-65716571D01*
X53517714Y-67216571D01*
X52160571Y-67216571D02*
X52160571Y-66430857D01*
X52232000Y-66288000D01*
X52374857Y-66216571D01*
X52660571Y-66216571D01*
X52803428Y-66288000D01*
X52160571Y-67145142D02*
X52303428Y-67216571D01*
X52660571Y-67216571D01*
X52803428Y-67145142D01*
X52874857Y-67002285D01*
X52874857Y-66859428D01*
X52803428Y-66716571D01*
X52660571Y-66645142D01*
X52303428Y-66645142D01*
X52160571Y-66573714D01*
X51446285Y-67216571D02*
X51446285Y-66216571D01*
X51446285Y-66502285D02*
X51374857Y-66359428D01*
X51303428Y-66288000D01*
X51160571Y-66216571D01*
X51017714Y-66216571D01*
X50517714Y-67216571D02*
X50517714Y-65716571D01*
X50374857Y-66645142D02*
X49946285Y-67216571D01*
X49946285Y-66216571D02*
X50517714Y-66788000D01*
X48803428Y-66430857D02*
X49303428Y-66430857D01*
X49303428Y-67216571D02*
X49303428Y-65716571D01*
X48589142Y-65716571D01*
X48017714Y-67216571D02*
X48017714Y-66216571D01*
X48017714Y-66502285D02*
X47946285Y-66359428D01*
X47874857Y-66288000D01*
X47732000Y-66216571D01*
X47589142Y-66216571D01*
X46874857Y-67216571D02*
X47017714Y-67145142D01*
X47089142Y-67073714D01*
X47160571Y-66930857D01*
X47160571Y-66502285D01*
X47089142Y-66359428D01*
X47017714Y-66288000D01*
X46874857Y-66216571D01*
X46660571Y-66216571D01*
X46517714Y-66288000D01*
X46446285Y-66359428D01*
X46374857Y-66502285D01*
X46374857Y-66930857D01*
X46446285Y-67073714D01*
X46517714Y-67145142D01*
X46660571Y-67216571D01*
X46874857Y-67216571D01*
X45732000Y-67216571D02*
X45732000Y-66216571D01*
X45732000Y-66359428D02*
X45660571Y-66288000D01*
X45517714Y-66216571D01*
X45303428Y-66216571D01*
X45160571Y-66288000D01*
X45089142Y-66430857D01*
X45089142Y-67216571D01*
X45089142Y-66430857D02*
X45017714Y-66288000D01*
X44874857Y-66216571D01*
X44660571Y-66216571D01*
X44517714Y-66288000D01*
X44446285Y-66430857D01*
X44446285Y-67216571D01*
X43803428Y-67145142D02*
X43589142Y-67216571D01*
X43232000Y-67216571D01*
X43089142Y-67145142D01*
X43017714Y-67073714D01*
X42946285Y-66930857D01*
X42946285Y-66788000D01*
X43017714Y-66645142D01*
X43089142Y-66573714D01*
X43232000Y-66502285D01*
X43517714Y-66430857D01*
X43660571Y-66359428D01*
X43732000Y-66288000D01*
X43803428Y-66145142D01*
X43803428Y-66002285D01*
X43732000Y-65859428D01*
X43660571Y-65788000D01*
X43517714Y-65716571D01*
X43160571Y-65716571D01*
X42946285Y-65788000D01*
X41660571Y-67216571D02*
X41660571Y-66430857D01*
X41732000Y-66288000D01*
X41874857Y-66216571D01*
X42160571Y-66216571D01*
X42303428Y-66288000D01*
X41660571Y-67145142D02*
X41803428Y-67216571D01*
X42160571Y-67216571D01*
X42303428Y-67145142D01*
X42374857Y-67002285D01*
X42374857Y-66859428D01*
X42303428Y-66716571D01*
X42160571Y-66645142D01*
X41803428Y-66645142D01*
X41660571Y-66573714D01*
X40732000Y-67216571D02*
X40874857Y-67145142D01*
X40946285Y-67002285D01*
X40946285Y-65716571D01*
X39589142Y-67145142D02*
X39732000Y-67216571D01*
X40017714Y-67216571D01*
X40160571Y-67145142D01*
X40232000Y-67002285D01*
X40232000Y-66430857D01*
X40160571Y-66288000D01*
X40017714Y-66216571D01*
X39732000Y-66216571D01*
X39589142Y-66288000D01*
X39517714Y-66430857D01*
X39517714Y-66573714D01*
X40232000Y-66716571D01*
X38946285Y-67145142D02*
X38803428Y-67216571D01*
X38517714Y-67216571D01*
X38374857Y-67145142D01*
X38303428Y-67002285D01*
X38303428Y-66930857D01*
X38374857Y-66788000D01*
X38517714Y-66716571D01*
X38732000Y-66716571D01*
X38874857Y-66645142D01*
X38946285Y-66502285D01*
X38946285Y-66430857D01*
X38874857Y-66288000D01*
X38732000Y-66216571D01*
X38517714Y-66216571D01*
X38374857Y-66288000D01*
X37660571Y-67073714D02*
X37589142Y-67145142D01*
X37660571Y-67216571D01*
X37732000Y-67145142D01*
X37660571Y-67073714D01*
X37660571Y-67216571D01*
X36303428Y-67145142D02*
X36446285Y-67216571D01*
X36732000Y-67216571D01*
X36874857Y-67145142D01*
X36946285Y-67073714D01*
X37017714Y-66930857D01*
X37017714Y-66502285D01*
X36946285Y-66359428D01*
X36874857Y-66288000D01*
X36732000Y-66216571D01*
X36446285Y-66216571D01*
X36303428Y-66288000D01*
X35446285Y-67216571D02*
X35589142Y-67145142D01*
X35660571Y-67073714D01*
X35732000Y-66930857D01*
X35732000Y-66502285D01*
X35660571Y-66359428D01*
X35589142Y-66288000D01*
X35446285Y-66216571D01*
X35232000Y-66216571D01*
X35089142Y-66288000D01*
X35017714Y-66359428D01*
X34946285Y-66502285D01*
X34946285Y-66930857D01*
X35017714Y-67073714D01*
X35089142Y-67145142D01*
X35232000Y-67216571D01*
X35446285Y-67216571D01*
X34303428Y-67216571D02*
X34303428Y-66216571D01*
X34303428Y-66359428D02*
X34232000Y-66288000D01*
X34089142Y-66216571D01*
X33874857Y-66216571D01*
X33732000Y-66288000D01*
X33660571Y-66430857D01*
X33660571Y-67216571D01*
X33660571Y-66430857D02*
X33589142Y-66288000D01*
X33446285Y-66216571D01*
X33232000Y-66216571D01*
X33089142Y-66288000D01*
X33017714Y-66430857D01*
X33017714Y-67216571D01*
X55696285Y-69766571D02*
X55696285Y-68266571D01*
X54839142Y-69766571D01*
X54839142Y-68266571D01*
X54124857Y-69766571D02*
X54124857Y-68766571D01*
X54124857Y-68266571D02*
X54196285Y-68338000D01*
X54124857Y-68409428D01*
X54053428Y-68338000D01*
X54124857Y-68266571D01*
X54124857Y-68409428D01*
X53553428Y-69766571D02*
X52767714Y-68766571D01*
X53553428Y-68766571D02*
X52767714Y-69766571D01*
X52196285Y-69766571D02*
X52196285Y-68766571D01*
X52196285Y-68266571D02*
X52267714Y-68338000D01*
X52196285Y-68409428D01*
X52124857Y-68338000D01*
X52196285Y-68266571D01*
X52196285Y-68409428D01*
X50910571Y-69695142D02*
X51053428Y-69766571D01*
X51339142Y-69766571D01*
X51482000Y-69695142D01*
X51553428Y-69552285D01*
X51553428Y-68980857D01*
X51482000Y-68838000D01*
X51339142Y-68766571D01*
X51053428Y-68766571D01*
X50910571Y-68838000D01*
X50839142Y-68980857D01*
X50839142Y-69123714D01*
X51553428Y-69266571D01*
X49053428Y-69766571D02*
X49053428Y-68266571D01*
X48482000Y-68266571D01*
X48339142Y-68338000D01*
X48267714Y-68409428D01*
X48196285Y-68552285D01*
X48196285Y-68766571D01*
X48267714Y-68909428D01*
X48339142Y-68980857D01*
X48482000Y-69052285D01*
X49053428Y-69052285D01*
X47553428Y-69766571D02*
X47553428Y-68766571D01*
X47553428Y-69052285D02*
X47482000Y-68909428D01*
X47410571Y-68838000D01*
X47267714Y-68766571D01*
X47124857Y-68766571D01*
X46410571Y-69766571D02*
X46553428Y-69695142D01*
X46624857Y-69623714D01*
X46696285Y-69480857D01*
X46696285Y-69052285D01*
X46624857Y-68909428D01*
X46553428Y-68838000D01*
X46410571Y-68766571D01*
X46196285Y-68766571D01*
X46053428Y-68838000D01*
X45982000Y-68909428D01*
X45910571Y-69052285D01*
X45910571Y-69480857D01*
X45982000Y-69623714D01*
X46053428Y-69695142D01*
X46196285Y-69766571D01*
X46410571Y-69766571D01*
X45482000Y-68766571D02*
X44910571Y-68766571D01*
X45267714Y-68266571D02*
X45267714Y-69552285D01*
X45196285Y-69695142D01*
X45053428Y-69766571D01*
X44910571Y-69766571D01*
X44196285Y-69766571D02*
X44339142Y-69695142D01*
X44410571Y-69623714D01*
X44482000Y-69480857D01*
X44482000Y-69052285D01*
X44410571Y-68909428D01*
X44339142Y-68838000D01*
X44196285Y-68766571D01*
X43982000Y-68766571D01*
X43839142Y-68838000D01*
X43767714Y-68909428D01*
X43696285Y-69052285D01*
X43696285Y-69480857D01*
X43767714Y-69623714D01*
X43839142Y-69695142D01*
X43982000Y-69766571D01*
X44196285Y-69766571D01*
X42553428Y-68980857D02*
X42339142Y-69052285D01*
X42267714Y-69123714D01*
X42196285Y-69266571D01*
X42196285Y-69480857D01*
X42267714Y-69623714D01*
X42339142Y-69695142D01*
X42482000Y-69766571D01*
X43053428Y-69766571D01*
X43053428Y-68266571D01*
X42553428Y-68266571D01*
X42410571Y-68338000D01*
X42339142Y-68409428D01*
X42267714Y-68552285D01*
X42267714Y-68695142D01*
X42339142Y-68838000D01*
X42410571Y-68909428D01*
X42553428Y-68980857D01*
X43053428Y-68980857D01*
X41339142Y-69766571D02*
X41482000Y-69695142D01*
X41553428Y-69623714D01*
X41624857Y-69480857D01*
X41624857Y-69052285D01*
X41553428Y-68909428D01*
X41482000Y-68838000D01*
X41339142Y-68766571D01*
X41124857Y-68766571D01*
X40982000Y-68838000D01*
X40910571Y-68909428D01*
X40839142Y-69052285D01*
X40839142Y-69480857D01*
X40910571Y-69623714D01*
X40982000Y-69695142D01*
X41124857Y-69766571D01*
X41339142Y-69766571D01*
X39553428Y-69766571D02*
X39553428Y-68980857D01*
X39624857Y-68838000D01*
X39767714Y-68766571D01*
X40053428Y-68766571D01*
X40196285Y-68838000D01*
X39553428Y-69695142D02*
X39696285Y-69766571D01*
X40053428Y-69766571D01*
X40196285Y-69695142D01*
X40267714Y-69552285D01*
X40267714Y-69409428D01*
X40196285Y-69266571D01*
X40053428Y-69195142D01*
X39696285Y-69195142D01*
X39553428Y-69123714D01*
X38839142Y-69766571D02*
X38839142Y-68766571D01*
X38839142Y-69052285D02*
X38767714Y-68909428D01*
X38696285Y-68838000D01*
X38553428Y-68766571D01*
X38410571Y-68766571D01*
X37267714Y-69766571D02*
X37267714Y-68266571D01*
X37267714Y-69695142D02*
X37410571Y-69766571D01*
X37696285Y-69766571D01*
X37839142Y-69695142D01*
X37910571Y-69623714D01*
X37982000Y-69480857D01*
X37982000Y-69052285D01*
X37910571Y-68909428D01*
X37839142Y-68838000D01*
X37696285Y-68766571D01*
X37410571Y-68766571D01*
X37267714Y-68838000D01*
X57839142Y-71316571D02*
X57482000Y-72316571D01*
X57124857Y-71316571D01*
X56624857Y-70959428D02*
X56553428Y-70888000D01*
X56410571Y-70816571D01*
X56053428Y-70816571D01*
X55910571Y-70888000D01*
X55839142Y-70959428D01*
X55767714Y-71102285D01*
X55767714Y-71245142D01*
X55839142Y-71459428D01*
X56696285Y-72316571D01*
X55767714Y-72316571D01*
X54839142Y-70816571D02*
X54696285Y-70816571D01*
X54553428Y-70888000D01*
X54482000Y-70959428D01*
X54410571Y-71102285D01*
X54339142Y-71388000D01*
X54339142Y-71745142D01*
X54410571Y-72030857D01*
X54482000Y-72173714D01*
X54553428Y-72245142D01*
X54696285Y-72316571D01*
X54839142Y-72316571D01*
X54982000Y-72245142D01*
X55053428Y-72173714D01*
X55124857Y-72030857D01*
X55196285Y-71745142D01*
X55196285Y-71388000D01*
X55124857Y-71102285D01*
X55053428Y-70959428D01*
X54982000Y-70888000D01*
X54839142Y-70816571D01*
X52910571Y-72316571D02*
X53767714Y-72316571D01*
X53339142Y-72316571D02*
X53339142Y-70816571D01*
X53482000Y-71030857D01*
X53624857Y-71173714D01*
X53767714Y-71245142D01*
X52196285Y-72316571D02*
X51910571Y-72316571D01*
X51767714Y-72245142D01*
X51696285Y-72173714D01*
X51553428Y-71959428D01*
X51482000Y-71673714D01*
X51482000Y-71102285D01*
X51553428Y-70959428D01*
X51624857Y-70888000D01*
X51767714Y-70816571D01*
X52053428Y-70816571D01*
X52196285Y-70888000D01*
X52267714Y-70959428D01*
X52339142Y-71102285D01*
X52339142Y-71459428D01*
X52267714Y-71602285D01*
X52196285Y-71673714D01*
X52053428Y-71745142D01*
X51767714Y-71745142D01*
X51624857Y-71673714D01*
X51553428Y-71602285D01*
X51482000Y-71459428D01*
X50839142Y-71745142D02*
X49696285Y-71745142D01*
X48696285Y-70816571D02*
X48553428Y-70816571D01*
X48410571Y-70888000D01*
X48339142Y-70959428D01*
X48267714Y-71102285D01*
X48196285Y-71388000D01*
X48196285Y-71745142D01*
X48267714Y-72030857D01*
X48339142Y-72173714D01*
X48410571Y-72245142D01*
X48553428Y-72316571D01*
X48696285Y-72316571D01*
X48839142Y-72245142D01*
X48910571Y-72173714D01*
X48982000Y-72030857D01*
X49053428Y-71745142D01*
X49053428Y-71388000D01*
X48982000Y-71102285D01*
X48910571Y-70959428D01*
X48839142Y-70888000D01*
X48696285Y-70816571D01*
X46767714Y-72316571D02*
X47624857Y-72316571D01*
X47196285Y-72316571D02*
X47196285Y-70816571D01*
X47339142Y-71030857D01*
X47482000Y-71173714D01*
X47624857Y-71245142D01*
X46124857Y-71745142D02*
X44982000Y-71745142D01*
X44339142Y-70959428D02*
X44267714Y-70888000D01*
X44124857Y-70816571D01*
X43767714Y-70816571D01*
X43624857Y-70888000D01*
X43553428Y-70959428D01*
X43482000Y-71102285D01*
X43482000Y-71245142D01*
X43553428Y-71459428D01*
X44410571Y-72316571D01*
X43482000Y-72316571D01*
X42981999Y-70816571D02*
X41981999Y-70816571D01*
X42624857Y-72316571D01*
X41767714Y-72459428D02*
X40624857Y-72459428D01*
X39482000Y-72316571D02*
X40339142Y-72316571D01*
X39910571Y-72316571D02*
X39910571Y-70816571D01*
X40053428Y-71030857D01*
X40196285Y-71173714D01*
X40339142Y-71245142D01*
X38624857Y-71459428D02*
X38767714Y-71388000D01*
X38839142Y-71316571D01*
X38910571Y-71173714D01*
X38910571Y-71102285D01*
X38839142Y-70959428D01*
X38767714Y-70888000D01*
X38624857Y-70816571D01*
X38339142Y-70816571D01*
X38196285Y-70888000D01*
X38124857Y-70959428D01*
X38053428Y-71102285D01*
X38053428Y-71173714D01*
X38124857Y-71316571D01*
X38196285Y-71388000D01*
X38339142Y-71459428D01*
X38624857Y-71459428D01*
X38767714Y-71530857D01*
X38839142Y-71602285D01*
X38910571Y-71745142D01*
X38910571Y-72030857D01*
X38839142Y-72173714D01*
X38767714Y-72245142D01*
X38624857Y-72316571D01*
X38339142Y-72316571D01*
X38196285Y-72245142D01*
X38124857Y-72173714D01*
X38053428Y-72030857D01*
X38053428Y-71745142D01*
X38124857Y-71602285D01*
X38196285Y-71530857D01*
X38339142Y-71459428D01*
X37553428Y-70816571D02*
X36624857Y-70816571D01*
X37124857Y-71388000D01*
X36910571Y-71388000D01*
X36767714Y-71459428D01*
X36696285Y-71530857D01*
X36624857Y-71673714D01*
X36624857Y-72030857D01*
X36696285Y-72173714D01*
X36767714Y-72245142D01*
X36910571Y-72316571D01*
X37339142Y-72316571D01*
X37482000Y-72245142D01*
X37553428Y-72173714D01*
X35696285Y-70816571D02*
X35553428Y-70816571D01*
X35410571Y-70888000D01*
X35339142Y-70959428D01*
X35267714Y-71102285D01*
X35196285Y-71388000D01*
X35196285Y-71745142D01*
X35267714Y-72030857D01*
X35339142Y-72173714D01*
X35410571Y-72245142D01*
X35553428Y-72316571D01*
X35696285Y-72316571D01*
X35839142Y-72245142D01*
X35910571Y-72173714D01*
X35982000Y-72030857D01*
X36053428Y-71745142D01*
X36053428Y-71388000D01*
X35982000Y-71102285D01*
X35910571Y-70959428D01*
X35839142Y-70888000D01*
X35696285Y-70816571D01*
D11*
G04 #@! TO.C,R2*
X45322748Y-79958000D02*
X45845252Y-79958000D01*
X45322748Y-78538000D02*
X45845252Y-78538000D01*
G04 #@! TO.C,R3*
X58022748Y-78538000D02*
X58545252Y-78538000D01*
X58022748Y-79958000D02*
X58545252Y-79958000D01*
G04 #@! TO.C,R4*
X70722748Y-79958000D02*
X71245252Y-79958000D01*
X70722748Y-78538000D02*
X71245252Y-78538000D01*
G04 #@! TO.C,R5*
X83422748Y-78538000D02*
X83945252Y-78538000D01*
X83422748Y-79958000D02*
X83945252Y-79958000D01*
G04 #@! TO.C,R8*
X116442748Y-78538000D02*
X116965252Y-78538000D01*
X116442748Y-79958000D02*
X116965252Y-79958000D01*
G04 #@! TO.C,R9*
X129142748Y-79958000D02*
X129665252Y-79958000D01*
X129142748Y-78538000D02*
X129665252Y-78538000D01*
G04 #@! TO.C,R10*
X141842748Y-78538000D02*
X142365252Y-78538000D01*
X141842748Y-79958000D02*
X142365252Y-79958000D01*
G04 #@! TO.C,R11*
X154542748Y-79958000D02*
X155065252Y-79958000D01*
X154542748Y-78538000D02*
X155065252Y-78538000D01*
G04 #@! TO.C,R13*
X187562748Y-78538000D02*
X188085252Y-78538000D01*
X187562748Y-79958000D02*
X188085252Y-79958000D01*
G04 #@! TO.C,R14*
X200262748Y-79958000D02*
X200785252Y-79958000D01*
X200262748Y-78538000D02*
X200785252Y-78538000D01*
G04 #@! TO.C,R15*
X212962748Y-78538000D02*
X213485252Y-78538000D01*
X212962748Y-79958000D02*
X213485252Y-79958000D01*
G04 #@! TO.C,R16*
X225662748Y-79958000D02*
X226185252Y-79958000D01*
X225662748Y-78538000D02*
X226185252Y-78538000D01*
G04 #@! TO.C,R2*
D12*
X45750666Y-81350380D02*
X46084000Y-80874190D01*
X46322095Y-81350380D02*
X46322095Y-80350380D01*
X45941142Y-80350380D01*
X45845904Y-80398000D01*
X45798285Y-80445619D01*
X45750666Y-80540857D01*
X45750666Y-80683714D01*
X45798285Y-80778952D01*
X45845904Y-80826571D01*
X45941142Y-80874190D01*
X46322095Y-80874190D01*
X45369714Y-80445619D02*
X45322095Y-80398000D01*
X45226857Y-80350380D01*
X44988761Y-80350380D01*
X44893523Y-80398000D01*
X44845904Y-80445619D01*
X44798285Y-80540857D01*
X44798285Y-80636095D01*
X44845904Y-80778952D01*
X45417333Y-81350380D01*
X44798285Y-81350380D01*
G04 #@! TO.C,R3*
X58450666Y-81350380D02*
X58784000Y-80874190D01*
X59022095Y-81350380D02*
X59022095Y-80350380D01*
X58641142Y-80350380D01*
X58545904Y-80398000D01*
X58498285Y-80445619D01*
X58450666Y-80540857D01*
X58450666Y-80683714D01*
X58498285Y-80778952D01*
X58545904Y-80826571D01*
X58641142Y-80874190D01*
X59022095Y-80874190D01*
X58117333Y-80350380D02*
X57498285Y-80350380D01*
X57831619Y-80731333D01*
X57688761Y-80731333D01*
X57593523Y-80778952D01*
X57545904Y-80826571D01*
X57498285Y-80921809D01*
X57498285Y-81159904D01*
X57545904Y-81255142D01*
X57593523Y-81302761D01*
X57688761Y-81350380D01*
X57974476Y-81350380D01*
X58069714Y-81302761D01*
X58117333Y-81255142D01*
G04 #@! TO.C,R4*
X71150666Y-81350380D02*
X71484000Y-80874190D01*
X71722095Y-81350380D02*
X71722095Y-80350380D01*
X71341142Y-80350380D01*
X71245904Y-80398000D01*
X71198285Y-80445619D01*
X71150666Y-80540857D01*
X71150666Y-80683714D01*
X71198285Y-80778952D01*
X71245904Y-80826571D01*
X71341142Y-80874190D01*
X71722095Y-80874190D01*
X70293523Y-80683714D02*
X70293523Y-81350380D01*
X70531619Y-80302761D02*
X70769714Y-81017047D01*
X70150666Y-81017047D01*
G04 #@! TO.C,R5*
X83850666Y-81350380D02*
X84184000Y-80874190D01*
X84422095Y-81350380D02*
X84422095Y-80350380D01*
X84041142Y-80350380D01*
X83945904Y-80398000D01*
X83898285Y-80445619D01*
X83850666Y-80540857D01*
X83850666Y-80683714D01*
X83898285Y-80778952D01*
X83945904Y-80826571D01*
X84041142Y-80874190D01*
X84422095Y-80874190D01*
X82945904Y-80350380D02*
X83422095Y-80350380D01*
X83469714Y-80826571D01*
X83422095Y-80778952D01*
X83326857Y-80731333D01*
X83088761Y-80731333D01*
X82993523Y-80778952D01*
X82945904Y-80826571D01*
X82898285Y-80921809D01*
X82898285Y-81159904D01*
X82945904Y-81255142D01*
X82993523Y-81302761D01*
X83088761Y-81350380D01*
X83326857Y-81350380D01*
X83422095Y-81302761D01*
X83469714Y-81255142D01*
G04 #@! TO.C,R8*
X116870666Y-81350380D02*
X117204000Y-80874190D01*
X117442095Y-81350380D02*
X117442095Y-80350380D01*
X117061142Y-80350380D01*
X116965904Y-80398000D01*
X116918285Y-80445619D01*
X116870666Y-80540857D01*
X116870666Y-80683714D01*
X116918285Y-80778952D01*
X116965904Y-80826571D01*
X117061142Y-80874190D01*
X117442095Y-80874190D01*
X116299238Y-80778952D02*
X116394476Y-80731333D01*
X116442095Y-80683714D01*
X116489714Y-80588476D01*
X116489714Y-80540857D01*
X116442095Y-80445619D01*
X116394476Y-80398000D01*
X116299238Y-80350380D01*
X116108761Y-80350380D01*
X116013523Y-80398000D01*
X115965904Y-80445619D01*
X115918285Y-80540857D01*
X115918285Y-80588476D01*
X115965904Y-80683714D01*
X116013523Y-80731333D01*
X116108761Y-80778952D01*
X116299238Y-80778952D01*
X116394476Y-80826571D01*
X116442095Y-80874190D01*
X116489714Y-80969428D01*
X116489714Y-81159904D01*
X116442095Y-81255142D01*
X116394476Y-81302761D01*
X116299238Y-81350380D01*
X116108761Y-81350380D01*
X116013523Y-81302761D01*
X115965904Y-81255142D01*
X115918285Y-81159904D01*
X115918285Y-80969428D01*
X115965904Y-80874190D01*
X116013523Y-80826571D01*
X116108761Y-80778952D01*
G04 #@! TO.C,R9*
X129570666Y-81350380D02*
X129904000Y-80874190D01*
X130142095Y-81350380D02*
X130142095Y-80350380D01*
X129761142Y-80350380D01*
X129665904Y-80398000D01*
X129618285Y-80445619D01*
X129570666Y-80540857D01*
X129570666Y-80683714D01*
X129618285Y-80778952D01*
X129665904Y-80826571D01*
X129761142Y-80874190D01*
X130142095Y-80874190D01*
X129094476Y-81350380D02*
X128904000Y-81350380D01*
X128808761Y-81302761D01*
X128761142Y-81255142D01*
X128665904Y-81112285D01*
X128618285Y-80921809D01*
X128618285Y-80540857D01*
X128665904Y-80445619D01*
X128713523Y-80398000D01*
X128808761Y-80350380D01*
X128999238Y-80350380D01*
X129094476Y-80398000D01*
X129142095Y-80445619D01*
X129189714Y-80540857D01*
X129189714Y-80778952D01*
X129142095Y-80874190D01*
X129094476Y-80921809D01*
X128999238Y-80969428D01*
X128808761Y-80969428D01*
X128713523Y-80921809D01*
X128665904Y-80874190D01*
X128618285Y-80778952D01*
G04 #@! TO.C,R10*
X142746857Y-81350380D02*
X143080190Y-80874190D01*
X143318285Y-81350380D02*
X143318285Y-80350380D01*
X142937333Y-80350380D01*
X142842095Y-80398000D01*
X142794476Y-80445619D01*
X142746857Y-80540857D01*
X142746857Y-80683714D01*
X142794476Y-80778952D01*
X142842095Y-80826571D01*
X142937333Y-80874190D01*
X143318285Y-80874190D01*
X141794476Y-81350380D02*
X142365904Y-81350380D01*
X142080190Y-81350380D02*
X142080190Y-80350380D01*
X142175428Y-80493238D01*
X142270666Y-80588476D01*
X142365904Y-80636095D01*
X141175428Y-80350380D02*
X141080190Y-80350380D01*
X140984952Y-80398000D01*
X140937333Y-80445619D01*
X140889714Y-80540857D01*
X140842095Y-80731333D01*
X140842095Y-80969428D01*
X140889714Y-81159904D01*
X140937333Y-81255142D01*
X140984952Y-81302761D01*
X141080190Y-81350380D01*
X141175428Y-81350380D01*
X141270666Y-81302761D01*
X141318285Y-81255142D01*
X141365904Y-81159904D01*
X141413523Y-80969428D01*
X141413523Y-80731333D01*
X141365904Y-80540857D01*
X141318285Y-80445619D01*
X141270666Y-80398000D01*
X141175428Y-80350380D01*
G04 #@! TO.C,R11*
X155446857Y-81350380D02*
X155780190Y-80874190D01*
X156018285Y-81350380D02*
X156018285Y-80350380D01*
X155637333Y-80350380D01*
X155542095Y-80398000D01*
X155494476Y-80445619D01*
X155446857Y-80540857D01*
X155446857Y-80683714D01*
X155494476Y-80778952D01*
X155542095Y-80826571D01*
X155637333Y-80874190D01*
X156018285Y-80874190D01*
X154494476Y-81350380D02*
X155065904Y-81350380D01*
X154780190Y-81350380D02*
X154780190Y-80350380D01*
X154875428Y-80493238D01*
X154970666Y-80588476D01*
X155065904Y-80636095D01*
X153542095Y-81350380D02*
X154113523Y-81350380D01*
X153827809Y-81350380D02*
X153827809Y-80350380D01*
X153923047Y-80493238D01*
X154018285Y-80588476D01*
X154113523Y-80636095D01*
G04 #@! TO.C,R13*
X188466857Y-81350380D02*
X188800190Y-80874190D01*
X189038285Y-81350380D02*
X189038285Y-80350380D01*
X188657333Y-80350380D01*
X188562095Y-80398000D01*
X188514476Y-80445619D01*
X188466857Y-80540857D01*
X188466857Y-80683714D01*
X188514476Y-80778952D01*
X188562095Y-80826571D01*
X188657333Y-80874190D01*
X189038285Y-80874190D01*
X187514476Y-81350380D02*
X188085904Y-81350380D01*
X187800190Y-81350380D02*
X187800190Y-80350380D01*
X187895428Y-80493238D01*
X187990666Y-80588476D01*
X188085904Y-80636095D01*
X187181142Y-80350380D02*
X186562095Y-80350380D01*
X186895428Y-80731333D01*
X186752571Y-80731333D01*
X186657333Y-80778952D01*
X186609714Y-80826571D01*
X186562095Y-80921809D01*
X186562095Y-81159904D01*
X186609714Y-81255142D01*
X186657333Y-81302761D01*
X186752571Y-81350380D01*
X187038285Y-81350380D01*
X187133523Y-81302761D01*
X187181142Y-81255142D01*
G04 #@! TO.C,R14*
X201166857Y-81350380D02*
X201500190Y-80874190D01*
X201738285Y-81350380D02*
X201738285Y-80350380D01*
X201357333Y-80350380D01*
X201262095Y-80398000D01*
X201214476Y-80445619D01*
X201166857Y-80540857D01*
X201166857Y-80683714D01*
X201214476Y-80778952D01*
X201262095Y-80826571D01*
X201357333Y-80874190D01*
X201738285Y-80874190D01*
X200214476Y-81350380D02*
X200785904Y-81350380D01*
X200500190Y-81350380D02*
X200500190Y-80350380D01*
X200595428Y-80493238D01*
X200690666Y-80588476D01*
X200785904Y-80636095D01*
X199357333Y-80683714D02*
X199357333Y-81350380D01*
X199595428Y-80302761D02*
X199833523Y-81017047D01*
X199214476Y-81017047D01*
G04 #@! TO.C,R15*
X213866857Y-81350380D02*
X214200190Y-80874190D01*
X214438285Y-81350380D02*
X214438285Y-80350380D01*
X214057333Y-80350380D01*
X213962095Y-80398000D01*
X213914476Y-80445619D01*
X213866857Y-80540857D01*
X213866857Y-80683714D01*
X213914476Y-80778952D01*
X213962095Y-80826571D01*
X214057333Y-80874190D01*
X214438285Y-80874190D01*
X212914476Y-81350380D02*
X213485904Y-81350380D01*
X213200190Y-81350380D02*
X213200190Y-80350380D01*
X213295428Y-80493238D01*
X213390666Y-80588476D01*
X213485904Y-80636095D01*
X212009714Y-80350380D02*
X212485904Y-80350380D01*
X212533523Y-80826571D01*
X212485904Y-80778952D01*
X212390666Y-80731333D01*
X212152571Y-80731333D01*
X212057333Y-80778952D01*
X212009714Y-80826571D01*
X211962095Y-80921809D01*
X211962095Y-81159904D01*
X212009714Y-81255142D01*
X212057333Y-81302761D01*
X212152571Y-81350380D01*
X212390666Y-81350380D01*
X212485904Y-81302761D01*
X212533523Y-81255142D01*
G04 #@! TO.C,R16*
X226566857Y-81350380D02*
X226900190Y-80874190D01*
X227138285Y-81350380D02*
X227138285Y-80350380D01*
X226757333Y-80350380D01*
X226662095Y-80398000D01*
X226614476Y-80445619D01*
X226566857Y-80540857D01*
X226566857Y-80683714D01*
X226614476Y-80778952D01*
X226662095Y-80826571D01*
X226757333Y-80874190D01*
X227138285Y-80874190D01*
X225614476Y-81350380D02*
X226185904Y-81350380D01*
X225900190Y-81350380D02*
X225900190Y-80350380D01*
X225995428Y-80493238D01*
X226090666Y-80588476D01*
X226185904Y-80636095D01*
X224757333Y-80350380D02*
X224947809Y-80350380D01*
X225043047Y-80398000D01*
X225090666Y-80445619D01*
X225185904Y-80588476D01*
X225233523Y-80778952D01*
X225233523Y-81159904D01*
X225185904Y-81255142D01*
X225138285Y-81302761D01*
X225043047Y-81350380D01*
X224852571Y-81350380D01*
X224757333Y-81302761D01*
X224709714Y-81255142D01*
X224662095Y-81159904D01*
X224662095Y-80921809D01*
X224709714Y-80826571D01*
X224757333Y-80778952D01*
X224852571Y-80731333D01*
X225043047Y-80731333D01*
X225138285Y-80778952D01*
X225185904Y-80826571D01*
X225233523Y-80921809D01*
G04 #@! TD*
M02*
