G04 #@! TF.GenerationSoftware,KiCad,Pcbnew,(5.0.2)-1*
G04 #@! TF.CreationDate,2019-02-09T21:32:43-06:00*
G04 #@! TF.ProjectId,Nixie-ProtoBoard,4e697869-652d-4507-926f-746f426f6172,1.0*
G04 #@! TF.SameCoordinates,Original*
G04 #@! TF.FileFunction,Paste,Top*
G04 #@! TF.FilePolarity,Positive*
%FSLAX46Y46*%
G04 Gerber Fmt 4.6, Leading zero omitted, Abs format (unit mm)*
G04 Created by KiCad (PCBNEW (5.0.2)-1) date 2/9/2019 9:32:43 PM*
%MOMM*%
%LPD*%
G01*
G04 APERTURE LIST*
%ADD10C,0.100000*%
%ADD11C,1.150000*%
G04 APERTURE END LIST*
D10*
G04 #@! TO.C,C2*
G36*
X124283505Y-67119204D02*
X124307773Y-67122804D01*
X124331572Y-67128765D01*
X124354671Y-67137030D01*
X124376850Y-67147520D01*
X124397893Y-67160132D01*
X124417599Y-67174747D01*
X124435777Y-67191223D01*
X124452253Y-67209401D01*
X124466868Y-67229107D01*
X124479480Y-67250150D01*
X124489970Y-67272329D01*
X124498235Y-67295428D01*
X124504196Y-67319227D01*
X124507796Y-67343495D01*
X124509000Y-67367999D01*
X124509000Y-68268001D01*
X124507796Y-68292505D01*
X124504196Y-68316773D01*
X124498235Y-68340572D01*
X124489970Y-68363671D01*
X124479480Y-68385850D01*
X124466868Y-68406893D01*
X124452253Y-68426599D01*
X124435777Y-68444777D01*
X124417599Y-68461253D01*
X124397893Y-68475868D01*
X124376850Y-68488480D01*
X124354671Y-68498970D01*
X124331572Y-68507235D01*
X124307773Y-68513196D01*
X124283505Y-68516796D01*
X124259001Y-68518000D01*
X123608999Y-68518000D01*
X123584495Y-68516796D01*
X123560227Y-68513196D01*
X123536428Y-68507235D01*
X123513329Y-68498970D01*
X123491150Y-68488480D01*
X123470107Y-68475868D01*
X123450401Y-68461253D01*
X123432223Y-68444777D01*
X123415747Y-68426599D01*
X123401132Y-68406893D01*
X123388520Y-68385850D01*
X123378030Y-68363671D01*
X123369765Y-68340572D01*
X123363804Y-68316773D01*
X123360204Y-68292505D01*
X123359000Y-68268001D01*
X123359000Y-67367999D01*
X123360204Y-67343495D01*
X123363804Y-67319227D01*
X123369765Y-67295428D01*
X123378030Y-67272329D01*
X123388520Y-67250150D01*
X123401132Y-67229107D01*
X123415747Y-67209401D01*
X123432223Y-67191223D01*
X123450401Y-67174747D01*
X123470107Y-67160132D01*
X123491150Y-67147520D01*
X123513329Y-67137030D01*
X123536428Y-67128765D01*
X123560227Y-67122804D01*
X123584495Y-67119204D01*
X123608999Y-67118000D01*
X124259001Y-67118000D01*
X124283505Y-67119204D01*
X124283505Y-67119204D01*
G37*
D11*
X123934000Y-67818000D03*
D10*
G36*
X126333505Y-67119204D02*
X126357773Y-67122804D01*
X126381572Y-67128765D01*
X126404671Y-67137030D01*
X126426850Y-67147520D01*
X126447893Y-67160132D01*
X126467599Y-67174747D01*
X126485777Y-67191223D01*
X126502253Y-67209401D01*
X126516868Y-67229107D01*
X126529480Y-67250150D01*
X126539970Y-67272329D01*
X126548235Y-67295428D01*
X126554196Y-67319227D01*
X126557796Y-67343495D01*
X126559000Y-67367999D01*
X126559000Y-68268001D01*
X126557796Y-68292505D01*
X126554196Y-68316773D01*
X126548235Y-68340572D01*
X126539970Y-68363671D01*
X126529480Y-68385850D01*
X126516868Y-68406893D01*
X126502253Y-68426599D01*
X126485777Y-68444777D01*
X126467599Y-68461253D01*
X126447893Y-68475868D01*
X126426850Y-68488480D01*
X126404671Y-68498970D01*
X126381572Y-68507235D01*
X126357773Y-68513196D01*
X126333505Y-68516796D01*
X126309001Y-68518000D01*
X125658999Y-68518000D01*
X125634495Y-68516796D01*
X125610227Y-68513196D01*
X125586428Y-68507235D01*
X125563329Y-68498970D01*
X125541150Y-68488480D01*
X125520107Y-68475868D01*
X125500401Y-68461253D01*
X125482223Y-68444777D01*
X125465747Y-68426599D01*
X125451132Y-68406893D01*
X125438520Y-68385850D01*
X125428030Y-68363671D01*
X125419765Y-68340572D01*
X125413804Y-68316773D01*
X125410204Y-68292505D01*
X125409000Y-68268001D01*
X125409000Y-67367999D01*
X125410204Y-67343495D01*
X125413804Y-67319227D01*
X125419765Y-67295428D01*
X125428030Y-67272329D01*
X125438520Y-67250150D01*
X125451132Y-67229107D01*
X125465747Y-67209401D01*
X125482223Y-67191223D01*
X125500401Y-67174747D01*
X125520107Y-67160132D01*
X125541150Y-67147520D01*
X125563329Y-67137030D01*
X125586428Y-67128765D01*
X125610227Y-67122804D01*
X125634495Y-67119204D01*
X125658999Y-67118000D01*
X126309001Y-67118000D01*
X126333505Y-67119204D01*
X126333505Y-67119204D01*
G37*
D11*
X125984000Y-67818000D03*
G04 #@! TD*
D10*
G04 #@! TO.C,C3*
G36*
X126333505Y-72199204D02*
X126357773Y-72202804D01*
X126381572Y-72208765D01*
X126404671Y-72217030D01*
X126426850Y-72227520D01*
X126447893Y-72240132D01*
X126467599Y-72254747D01*
X126485777Y-72271223D01*
X126502253Y-72289401D01*
X126516868Y-72309107D01*
X126529480Y-72330150D01*
X126539970Y-72352329D01*
X126548235Y-72375428D01*
X126554196Y-72399227D01*
X126557796Y-72423495D01*
X126559000Y-72447999D01*
X126559000Y-73348001D01*
X126557796Y-73372505D01*
X126554196Y-73396773D01*
X126548235Y-73420572D01*
X126539970Y-73443671D01*
X126529480Y-73465850D01*
X126516868Y-73486893D01*
X126502253Y-73506599D01*
X126485777Y-73524777D01*
X126467599Y-73541253D01*
X126447893Y-73555868D01*
X126426850Y-73568480D01*
X126404671Y-73578970D01*
X126381572Y-73587235D01*
X126357773Y-73593196D01*
X126333505Y-73596796D01*
X126309001Y-73598000D01*
X125658999Y-73598000D01*
X125634495Y-73596796D01*
X125610227Y-73593196D01*
X125586428Y-73587235D01*
X125563329Y-73578970D01*
X125541150Y-73568480D01*
X125520107Y-73555868D01*
X125500401Y-73541253D01*
X125482223Y-73524777D01*
X125465747Y-73506599D01*
X125451132Y-73486893D01*
X125438520Y-73465850D01*
X125428030Y-73443671D01*
X125419765Y-73420572D01*
X125413804Y-73396773D01*
X125410204Y-73372505D01*
X125409000Y-73348001D01*
X125409000Y-72447999D01*
X125410204Y-72423495D01*
X125413804Y-72399227D01*
X125419765Y-72375428D01*
X125428030Y-72352329D01*
X125438520Y-72330150D01*
X125451132Y-72309107D01*
X125465747Y-72289401D01*
X125482223Y-72271223D01*
X125500401Y-72254747D01*
X125520107Y-72240132D01*
X125541150Y-72227520D01*
X125563329Y-72217030D01*
X125586428Y-72208765D01*
X125610227Y-72202804D01*
X125634495Y-72199204D01*
X125658999Y-72198000D01*
X126309001Y-72198000D01*
X126333505Y-72199204D01*
X126333505Y-72199204D01*
G37*
D11*
X125984000Y-72898000D03*
D10*
G36*
X124283505Y-72199204D02*
X124307773Y-72202804D01*
X124331572Y-72208765D01*
X124354671Y-72217030D01*
X124376850Y-72227520D01*
X124397893Y-72240132D01*
X124417599Y-72254747D01*
X124435777Y-72271223D01*
X124452253Y-72289401D01*
X124466868Y-72309107D01*
X124479480Y-72330150D01*
X124489970Y-72352329D01*
X124498235Y-72375428D01*
X124504196Y-72399227D01*
X124507796Y-72423495D01*
X124509000Y-72447999D01*
X124509000Y-73348001D01*
X124507796Y-73372505D01*
X124504196Y-73396773D01*
X124498235Y-73420572D01*
X124489970Y-73443671D01*
X124479480Y-73465850D01*
X124466868Y-73486893D01*
X124452253Y-73506599D01*
X124435777Y-73524777D01*
X124417599Y-73541253D01*
X124397893Y-73555868D01*
X124376850Y-73568480D01*
X124354671Y-73578970D01*
X124331572Y-73587235D01*
X124307773Y-73593196D01*
X124283505Y-73596796D01*
X124259001Y-73598000D01*
X123608999Y-73598000D01*
X123584495Y-73596796D01*
X123560227Y-73593196D01*
X123536428Y-73587235D01*
X123513329Y-73578970D01*
X123491150Y-73568480D01*
X123470107Y-73555868D01*
X123450401Y-73541253D01*
X123432223Y-73524777D01*
X123415747Y-73506599D01*
X123401132Y-73486893D01*
X123388520Y-73465850D01*
X123378030Y-73443671D01*
X123369765Y-73420572D01*
X123363804Y-73396773D01*
X123360204Y-73372505D01*
X123359000Y-73348001D01*
X123359000Y-72447999D01*
X123360204Y-72423495D01*
X123363804Y-72399227D01*
X123369765Y-72375428D01*
X123378030Y-72352329D01*
X123388520Y-72330150D01*
X123401132Y-72309107D01*
X123415747Y-72289401D01*
X123432223Y-72271223D01*
X123450401Y-72254747D01*
X123470107Y-72240132D01*
X123491150Y-72227520D01*
X123513329Y-72217030D01*
X123536428Y-72208765D01*
X123560227Y-72202804D01*
X123584495Y-72199204D01*
X123608999Y-72198000D01*
X124259001Y-72198000D01*
X124283505Y-72199204D01*
X124283505Y-72199204D01*
G37*
D11*
X123934000Y-72898000D03*
G04 #@! TD*
D10*
G04 #@! TO.C,C4*
G36*
X199213505Y-70929204D02*
X199237773Y-70932804D01*
X199261572Y-70938765D01*
X199284671Y-70947030D01*
X199306850Y-70957520D01*
X199327893Y-70970132D01*
X199347599Y-70984747D01*
X199365777Y-71001223D01*
X199382253Y-71019401D01*
X199396868Y-71039107D01*
X199409480Y-71060150D01*
X199419970Y-71082329D01*
X199428235Y-71105428D01*
X199434196Y-71129227D01*
X199437796Y-71153495D01*
X199439000Y-71177999D01*
X199439000Y-72078001D01*
X199437796Y-72102505D01*
X199434196Y-72126773D01*
X199428235Y-72150572D01*
X199419970Y-72173671D01*
X199409480Y-72195850D01*
X199396868Y-72216893D01*
X199382253Y-72236599D01*
X199365777Y-72254777D01*
X199347599Y-72271253D01*
X199327893Y-72285868D01*
X199306850Y-72298480D01*
X199284671Y-72308970D01*
X199261572Y-72317235D01*
X199237773Y-72323196D01*
X199213505Y-72326796D01*
X199189001Y-72328000D01*
X198538999Y-72328000D01*
X198514495Y-72326796D01*
X198490227Y-72323196D01*
X198466428Y-72317235D01*
X198443329Y-72308970D01*
X198421150Y-72298480D01*
X198400107Y-72285868D01*
X198380401Y-72271253D01*
X198362223Y-72254777D01*
X198345747Y-72236599D01*
X198331132Y-72216893D01*
X198318520Y-72195850D01*
X198308030Y-72173671D01*
X198299765Y-72150572D01*
X198293804Y-72126773D01*
X198290204Y-72102505D01*
X198289000Y-72078001D01*
X198289000Y-71177999D01*
X198290204Y-71153495D01*
X198293804Y-71129227D01*
X198299765Y-71105428D01*
X198308030Y-71082329D01*
X198318520Y-71060150D01*
X198331132Y-71039107D01*
X198345747Y-71019401D01*
X198362223Y-71001223D01*
X198380401Y-70984747D01*
X198400107Y-70970132D01*
X198421150Y-70957520D01*
X198443329Y-70947030D01*
X198466428Y-70938765D01*
X198490227Y-70932804D01*
X198514495Y-70929204D01*
X198538999Y-70928000D01*
X199189001Y-70928000D01*
X199213505Y-70929204D01*
X199213505Y-70929204D01*
G37*
D11*
X198864000Y-71628000D03*
D10*
G36*
X201263505Y-70929204D02*
X201287773Y-70932804D01*
X201311572Y-70938765D01*
X201334671Y-70947030D01*
X201356850Y-70957520D01*
X201377893Y-70970132D01*
X201397599Y-70984747D01*
X201415777Y-71001223D01*
X201432253Y-71019401D01*
X201446868Y-71039107D01*
X201459480Y-71060150D01*
X201469970Y-71082329D01*
X201478235Y-71105428D01*
X201484196Y-71129227D01*
X201487796Y-71153495D01*
X201489000Y-71177999D01*
X201489000Y-72078001D01*
X201487796Y-72102505D01*
X201484196Y-72126773D01*
X201478235Y-72150572D01*
X201469970Y-72173671D01*
X201459480Y-72195850D01*
X201446868Y-72216893D01*
X201432253Y-72236599D01*
X201415777Y-72254777D01*
X201397599Y-72271253D01*
X201377893Y-72285868D01*
X201356850Y-72298480D01*
X201334671Y-72308970D01*
X201311572Y-72317235D01*
X201287773Y-72323196D01*
X201263505Y-72326796D01*
X201239001Y-72328000D01*
X200588999Y-72328000D01*
X200564495Y-72326796D01*
X200540227Y-72323196D01*
X200516428Y-72317235D01*
X200493329Y-72308970D01*
X200471150Y-72298480D01*
X200450107Y-72285868D01*
X200430401Y-72271253D01*
X200412223Y-72254777D01*
X200395747Y-72236599D01*
X200381132Y-72216893D01*
X200368520Y-72195850D01*
X200358030Y-72173671D01*
X200349765Y-72150572D01*
X200343804Y-72126773D01*
X200340204Y-72102505D01*
X200339000Y-72078001D01*
X200339000Y-71177999D01*
X200340204Y-71153495D01*
X200343804Y-71129227D01*
X200349765Y-71105428D01*
X200358030Y-71082329D01*
X200368520Y-71060150D01*
X200381132Y-71039107D01*
X200395747Y-71019401D01*
X200412223Y-71001223D01*
X200430401Y-70984747D01*
X200450107Y-70970132D01*
X200471150Y-70957520D01*
X200493329Y-70947030D01*
X200516428Y-70938765D01*
X200540227Y-70932804D01*
X200564495Y-70929204D01*
X200588999Y-70928000D01*
X201239001Y-70928000D01*
X201263505Y-70929204D01*
X201263505Y-70929204D01*
G37*
D11*
X200914000Y-71628000D03*
G04 #@! TD*
D10*
G04 #@! TO.C,C5*
G36*
X245958505Y-105464204D02*
X245982773Y-105467804D01*
X246006572Y-105473765D01*
X246029671Y-105482030D01*
X246051850Y-105492520D01*
X246072893Y-105505132D01*
X246092599Y-105519747D01*
X246110777Y-105536223D01*
X246127253Y-105554401D01*
X246141868Y-105574107D01*
X246154480Y-105595150D01*
X246164970Y-105617329D01*
X246173235Y-105640428D01*
X246179196Y-105664227D01*
X246182796Y-105688495D01*
X246184000Y-105712999D01*
X246184000Y-106613001D01*
X246182796Y-106637505D01*
X246179196Y-106661773D01*
X246173235Y-106685572D01*
X246164970Y-106708671D01*
X246154480Y-106730850D01*
X246141868Y-106751893D01*
X246127253Y-106771599D01*
X246110777Y-106789777D01*
X246092599Y-106806253D01*
X246072893Y-106820868D01*
X246051850Y-106833480D01*
X246029671Y-106843970D01*
X246006572Y-106852235D01*
X245982773Y-106858196D01*
X245958505Y-106861796D01*
X245934001Y-106863000D01*
X245283999Y-106863000D01*
X245259495Y-106861796D01*
X245235227Y-106858196D01*
X245211428Y-106852235D01*
X245188329Y-106843970D01*
X245166150Y-106833480D01*
X245145107Y-106820868D01*
X245125401Y-106806253D01*
X245107223Y-106789777D01*
X245090747Y-106771599D01*
X245076132Y-106751893D01*
X245063520Y-106730850D01*
X245053030Y-106708671D01*
X245044765Y-106685572D01*
X245038804Y-106661773D01*
X245035204Y-106637505D01*
X245034000Y-106613001D01*
X245034000Y-105712999D01*
X245035204Y-105688495D01*
X245038804Y-105664227D01*
X245044765Y-105640428D01*
X245053030Y-105617329D01*
X245063520Y-105595150D01*
X245076132Y-105574107D01*
X245090747Y-105554401D01*
X245107223Y-105536223D01*
X245125401Y-105519747D01*
X245145107Y-105505132D01*
X245166150Y-105492520D01*
X245188329Y-105482030D01*
X245211428Y-105473765D01*
X245235227Y-105467804D01*
X245259495Y-105464204D01*
X245283999Y-105463000D01*
X245934001Y-105463000D01*
X245958505Y-105464204D01*
X245958505Y-105464204D01*
G37*
D11*
X245609000Y-106163000D03*
D10*
G36*
X248008505Y-105464204D02*
X248032773Y-105467804D01*
X248056572Y-105473765D01*
X248079671Y-105482030D01*
X248101850Y-105492520D01*
X248122893Y-105505132D01*
X248142599Y-105519747D01*
X248160777Y-105536223D01*
X248177253Y-105554401D01*
X248191868Y-105574107D01*
X248204480Y-105595150D01*
X248214970Y-105617329D01*
X248223235Y-105640428D01*
X248229196Y-105664227D01*
X248232796Y-105688495D01*
X248234000Y-105712999D01*
X248234000Y-106613001D01*
X248232796Y-106637505D01*
X248229196Y-106661773D01*
X248223235Y-106685572D01*
X248214970Y-106708671D01*
X248204480Y-106730850D01*
X248191868Y-106751893D01*
X248177253Y-106771599D01*
X248160777Y-106789777D01*
X248142599Y-106806253D01*
X248122893Y-106820868D01*
X248101850Y-106833480D01*
X248079671Y-106843970D01*
X248056572Y-106852235D01*
X248032773Y-106858196D01*
X248008505Y-106861796D01*
X247984001Y-106863000D01*
X247333999Y-106863000D01*
X247309495Y-106861796D01*
X247285227Y-106858196D01*
X247261428Y-106852235D01*
X247238329Y-106843970D01*
X247216150Y-106833480D01*
X247195107Y-106820868D01*
X247175401Y-106806253D01*
X247157223Y-106789777D01*
X247140747Y-106771599D01*
X247126132Y-106751893D01*
X247113520Y-106730850D01*
X247103030Y-106708671D01*
X247094765Y-106685572D01*
X247088804Y-106661773D01*
X247085204Y-106637505D01*
X247084000Y-106613001D01*
X247084000Y-105712999D01*
X247085204Y-105688495D01*
X247088804Y-105664227D01*
X247094765Y-105640428D01*
X247103030Y-105617329D01*
X247113520Y-105595150D01*
X247126132Y-105574107D01*
X247140747Y-105554401D01*
X247157223Y-105536223D01*
X247175401Y-105519747D01*
X247195107Y-105505132D01*
X247216150Y-105492520D01*
X247238329Y-105482030D01*
X247261428Y-105473765D01*
X247285227Y-105467804D01*
X247309495Y-105464204D01*
X247333999Y-105463000D01*
X247984001Y-105463000D01*
X248008505Y-105464204D01*
X248008505Y-105464204D01*
G37*
D11*
X247659000Y-106163000D03*
G04 #@! TD*
D10*
G04 #@! TO.C,C6*
G36*
X257268505Y-75644204D02*
X257292773Y-75647804D01*
X257316572Y-75653765D01*
X257339671Y-75662030D01*
X257361850Y-75672520D01*
X257382893Y-75685132D01*
X257402599Y-75699747D01*
X257420777Y-75716223D01*
X257437253Y-75734401D01*
X257451868Y-75754107D01*
X257464480Y-75775150D01*
X257474970Y-75797329D01*
X257483235Y-75820428D01*
X257489196Y-75844227D01*
X257492796Y-75868495D01*
X257494000Y-75892999D01*
X257494000Y-76543001D01*
X257492796Y-76567505D01*
X257489196Y-76591773D01*
X257483235Y-76615572D01*
X257474970Y-76638671D01*
X257464480Y-76660850D01*
X257451868Y-76681893D01*
X257437253Y-76701599D01*
X257420777Y-76719777D01*
X257402599Y-76736253D01*
X257382893Y-76750868D01*
X257361850Y-76763480D01*
X257339671Y-76773970D01*
X257316572Y-76782235D01*
X257292773Y-76788196D01*
X257268505Y-76791796D01*
X257244001Y-76793000D01*
X256343999Y-76793000D01*
X256319495Y-76791796D01*
X256295227Y-76788196D01*
X256271428Y-76782235D01*
X256248329Y-76773970D01*
X256226150Y-76763480D01*
X256205107Y-76750868D01*
X256185401Y-76736253D01*
X256167223Y-76719777D01*
X256150747Y-76701599D01*
X256136132Y-76681893D01*
X256123520Y-76660850D01*
X256113030Y-76638671D01*
X256104765Y-76615572D01*
X256098804Y-76591773D01*
X256095204Y-76567505D01*
X256094000Y-76543001D01*
X256094000Y-75892999D01*
X256095204Y-75868495D01*
X256098804Y-75844227D01*
X256104765Y-75820428D01*
X256113030Y-75797329D01*
X256123520Y-75775150D01*
X256136132Y-75754107D01*
X256150747Y-75734401D01*
X256167223Y-75716223D01*
X256185401Y-75699747D01*
X256205107Y-75685132D01*
X256226150Y-75672520D01*
X256248329Y-75662030D01*
X256271428Y-75653765D01*
X256295227Y-75647804D01*
X256319495Y-75644204D01*
X256343999Y-75643000D01*
X257244001Y-75643000D01*
X257268505Y-75644204D01*
X257268505Y-75644204D01*
G37*
D11*
X256794000Y-76218000D03*
D10*
G36*
X257268505Y-73594204D02*
X257292773Y-73597804D01*
X257316572Y-73603765D01*
X257339671Y-73612030D01*
X257361850Y-73622520D01*
X257382893Y-73635132D01*
X257402599Y-73649747D01*
X257420777Y-73666223D01*
X257437253Y-73684401D01*
X257451868Y-73704107D01*
X257464480Y-73725150D01*
X257474970Y-73747329D01*
X257483235Y-73770428D01*
X257489196Y-73794227D01*
X257492796Y-73818495D01*
X257494000Y-73842999D01*
X257494000Y-74493001D01*
X257492796Y-74517505D01*
X257489196Y-74541773D01*
X257483235Y-74565572D01*
X257474970Y-74588671D01*
X257464480Y-74610850D01*
X257451868Y-74631893D01*
X257437253Y-74651599D01*
X257420777Y-74669777D01*
X257402599Y-74686253D01*
X257382893Y-74700868D01*
X257361850Y-74713480D01*
X257339671Y-74723970D01*
X257316572Y-74732235D01*
X257292773Y-74738196D01*
X257268505Y-74741796D01*
X257244001Y-74743000D01*
X256343999Y-74743000D01*
X256319495Y-74741796D01*
X256295227Y-74738196D01*
X256271428Y-74732235D01*
X256248329Y-74723970D01*
X256226150Y-74713480D01*
X256205107Y-74700868D01*
X256185401Y-74686253D01*
X256167223Y-74669777D01*
X256150747Y-74651599D01*
X256136132Y-74631893D01*
X256123520Y-74610850D01*
X256113030Y-74588671D01*
X256104765Y-74565572D01*
X256098804Y-74541773D01*
X256095204Y-74517505D01*
X256094000Y-74493001D01*
X256094000Y-73842999D01*
X256095204Y-73818495D01*
X256098804Y-73794227D01*
X256104765Y-73770428D01*
X256113030Y-73747329D01*
X256123520Y-73725150D01*
X256136132Y-73704107D01*
X256150747Y-73684401D01*
X256167223Y-73666223D01*
X256185401Y-73649747D01*
X256205107Y-73635132D01*
X256226150Y-73622520D01*
X256248329Y-73612030D01*
X256271428Y-73603765D01*
X256295227Y-73597804D01*
X256319495Y-73594204D01*
X256343999Y-73593000D01*
X257244001Y-73593000D01*
X257268505Y-73594204D01*
X257268505Y-73594204D01*
G37*
D11*
X256794000Y-74168000D03*
G04 #@! TD*
D10*
G04 #@! TO.C,C7*
G36*
X243953505Y-134683204D02*
X243977773Y-134686804D01*
X244001572Y-134692765D01*
X244024671Y-134701030D01*
X244046850Y-134711520D01*
X244067893Y-134724132D01*
X244087599Y-134738747D01*
X244105777Y-134755223D01*
X244122253Y-134773401D01*
X244136868Y-134793107D01*
X244149480Y-134814150D01*
X244159970Y-134836329D01*
X244168235Y-134859428D01*
X244174196Y-134883227D01*
X244177796Y-134907495D01*
X244179000Y-134931999D01*
X244179000Y-135832001D01*
X244177796Y-135856505D01*
X244174196Y-135880773D01*
X244168235Y-135904572D01*
X244159970Y-135927671D01*
X244149480Y-135949850D01*
X244136868Y-135970893D01*
X244122253Y-135990599D01*
X244105777Y-136008777D01*
X244087599Y-136025253D01*
X244067893Y-136039868D01*
X244046850Y-136052480D01*
X244024671Y-136062970D01*
X244001572Y-136071235D01*
X243977773Y-136077196D01*
X243953505Y-136080796D01*
X243929001Y-136082000D01*
X243278999Y-136082000D01*
X243254495Y-136080796D01*
X243230227Y-136077196D01*
X243206428Y-136071235D01*
X243183329Y-136062970D01*
X243161150Y-136052480D01*
X243140107Y-136039868D01*
X243120401Y-136025253D01*
X243102223Y-136008777D01*
X243085747Y-135990599D01*
X243071132Y-135970893D01*
X243058520Y-135949850D01*
X243048030Y-135927671D01*
X243039765Y-135904572D01*
X243033804Y-135880773D01*
X243030204Y-135856505D01*
X243029000Y-135832001D01*
X243029000Y-134931999D01*
X243030204Y-134907495D01*
X243033804Y-134883227D01*
X243039765Y-134859428D01*
X243048030Y-134836329D01*
X243058520Y-134814150D01*
X243071132Y-134793107D01*
X243085747Y-134773401D01*
X243102223Y-134755223D01*
X243120401Y-134738747D01*
X243140107Y-134724132D01*
X243161150Y-134711520D01*
X243183329Y-134701030D01*
X243206428Y-134692765D01*
X243230227Y-134686804D01*
X243254495Y-134683204D01*
X243278999Y-134682000D01*
X243929001Y-134682000D01*
X243953505Y-134683204D01*
X243953505Y-134683204D01*
G37*
D11*
X243604000Y-135382000D03*
D10*
G36*
X241903505Y-134683204D02*
X241927773Y-134686804D01*
X241951572Y-134692765D01*
X241974671Y-134701030D01*
X241996850Y-134711520D01*
X242017893Y-134724132D01*
X242037599Y-134738747D01*
X242055777Y-134755223D01*
X242072253Y-134773401D01*
X242086868Y-134793107D01*
X242099480Y-134814150D01*
X242109970Y-134836329D01*
X242118235Y-134859428D01*
X242124196Y-134883227D01*
X242127796Y-134907495D01*
X242129000Y-134931999D01*
X242129000Y-135832001D01*
X242127796Y-135856505D01*
X242124196Y-135880773D01*
X242118235Y-135904572D01*
X242109970Y-135927671D01*
X242099480Y-135949850D01*
X242086868Y-135970893D01*
X242072253Y-135990599D01*
X242055777Y-136008777D01*
X242037599Y-136025253D01*
X242017893Y-136039868D01*
X241996850Y-136052480D01*
X241974671Y-136062970D01*
X241951572Y-136071235D01*
X241927773Y-136077196D01*
X241903505Y-136080796D01*
X241879001Y-136082000D01*
X241228999Y-136082000D01*
X241204495Y-136080796D01*
X241180227Y-136077196D01*
X241156428Y-136071235D01*
X241133329Y-136062970D01*
X241111150Y-136052480D01*
X241090107Y-136039868D01*
X241070401Y-136025253D01*
X241052223Y-136008777D01*
X241035747Y-135990599D01*
X241021132Y-135970893D01*
X241008520Y-135949850D01*
X240998030Y-135927671D01*
X240989765Y-135904572D01*
X240983804Y-135880773D01*
X240980204Y-135856505D01*
X240979000Y-135832001D01*
X240979000Y-134931999D01*
X240980204Y-134907495D01*
X240983804Y-134883227D01*
X240989765Y-134859428D01*
X240998030Y-134836329D01*
X241008520Y-134814150D01*
X241021132Y-134793107D01*
X241035747Y-134773401D01*
X241052223Y-134755223D01*
X241070401Y-134738747D01*
X241090107Y-134724132D01*
X241111150Y-134711520D01*
X241133329Y-134701030D01*
X241156428Y-134692765D01*
X241180227Y-134686804D01*
X241204495Y-134683204D01*
X241228999Y-134682000D01*
X241879001Y-134682000D01*
X241903505Y-134683204D01*
X241903505Y-134683204D01*
G37*
D11*
X241554000Y-135382000D03*
G04 #@! TD*
D10*
G04 #@! TO.C,D1*
G36*
X193888505Y-70929204D02*
X193912773Y-70932804D01*
X193936572Y-70938765D01*
X193959671Y-70947030D01*
X193981850Y-70957520D01*
X194002893Y-70970132D01*
X194022599Y-70984747D01*
X194040777Y-71001223D01*
X194057253Y-71019401D01*
X194071868Y-71039107D01*
X194084480Y-71060150D01*
X194094970Y-71082329D01*
X194103235Y-71105428D01*
X194109196Y-71129227D01*
X194112796Y-71153495D01*
X194114000Y-71177999D01*
X194114000Y-72078001D01*
X194112796Y-72102505D01*
X194109196Y-72126773D01*
X194103235Y-72150572D01*
X194094970Y-72173671D01*
X194084480Y-72195850D01*
X194071868Y-72216893D01*
X194057253Y-72236599D01*
X194040777Y-72254777D01*
X194022599Y-72271253D01*
X194002893Y-72285868D01*
X193981850Y-72298480D01*
X193959671Y-72308970D01*
X193936572Y-72317235D01*
X193912773Y-72323196D01*
X193888505Y-72326796D01*
X193864001Y-72328000D01*
X193213999Y-72328000D01*
X193189495Y-72326796D01*
X193165227Y-72323196D01*
X193141428Y-72317235D01*
X193118329Y-72308970D01*
X193096150Y-72298480D01*
X193075107Y-72285868D01*
X193055401Y-72271253D01*
X193037223Y-72254777D01*
X193020747Y-72236599D01*
X193006132Y-72216893D01*
X192993520Y-72195850D01*
X192983030Y-72173671D01*
X192974765Y-72150572D01*
X192968804Y-72126773D01*
X192965204Y-72102505D01*
X192964000Y-72078001D01*
X192964000Y-71177999D01*
X192965204Y-71153495D01*
X192968804Y-71129227D01*
X192974765Y-71105428D01*
X192983030Y-71082329D01*
X192993520Y-71060150D01*
X193006132Y-71039107D01*
X193020747Y-71019401D01*
X193037223Y-71001223D01*
X193055401Y-70984747D01*
X193075107Y-70970132D01*
X193096150Y-70957520D01*
X193118329Y-70947030D01*
X193141428Y-70938765D01*
X193165227Y-70932804D01*
X193189495Y-70929204D01*
X193213999Y-70928000D01*
X193864001Y-70928000D01*
X193888505Y-70929204D01*
X193888505Y-70929204D01*
G37*
D11*
X193539000Y-71628000D03*
D10*
G36*
X195938505Y-70929204D02*
X195962773Y-70932804D01*
X195986572Y-70938765D01*
X196009671Y-70947030D01*
X196031850Y-70957520D01*
X196052893Y-70970132D01*
X196072599Y-70984747D01*
X196090777Y-71001223D01*
X196107253Y-71019401D01*
X196121868Y-71039107D01*
X196134480Y-71060150D01*
X196144970Y-71082329D01*
X196153235Y-71105428D01*
X196159196Y-71129227D01*
X196162796Y-71153495D01*
X196164000Y-71177999D01*
X196164000Y-72078001D01*
X196162796Y-72102505D01*
X196159196Y-72126773D01*
X196153235Y-72150572D01*
X196144970Y-72173671D01*
X196134480Y-72195850D01*
X196121868Y-72216893D01*
X196107253Y-72236599D01*
X196090777Y-72254777D01*
X196072599Y-72271253D01*
X196052893Y-72285868D01*
X196031850Y-72298480D01*
X196009671Y-72308970D01*
X195986572Y-72317235D01*
X195962773Y-72323196D01*
X195938505Y-72326796D01*
X195914001Y-72328000D01*
X195263999Y-72328000D01*
X195239495Y-72326796D01*
X195215227Y-72323196D01*
X195191428Y-72317235D01*
X195168329Y-72308970D01*
X195146150Y-72298480D01*
X195125107Y-72285868D01*
X195105401Y-72271253D01*
X195087223Y-72254777D01*
X195070747Y-72236599D01*
X195056132Y-72216893D01*
X195043520Y-72195850D01*
X195033030Y-72173671D01*
X195024765Y-72150572D01*
X195018804Y-72126773D01*
X195015204Y-72102505D01*
X195014000Y-72078001D01*
X195014000Y-71177999D01*
X195015204Y-71153495D01*
X195018804Y-71129227D01*
X195024765Y-71105428D01*
X195033030Y-71082329D01*
X195043520Y-71060150D01*
X195056132Y-71039107D01*
X195070747Y-71019401D01*
X195087223Y-71001223D01*
X195105401Y-70984747D01*
X195125107Y-70970132D01*
X195146150Y-70957520D01*
X195168329Y-70947030D01*
X195191428Y-70938765D01*
X195215227Y-70932804D01*
X195239495Y-70929204D01*
X195263999Y-70928000D01*
X195914001Y-70928000D01*
X195938505Y-70929204D01*
X195938505Y-70929204D01*
G37*
D11*
X195589000Y-71628000D03*
G04 #@! TD*
D10*
G04 #@! TO.C,D2*
G36*
X89503505Y-63309204D02*
X89527773Y-63312804D01*
X89551572Y-63318765D01*
X89574671Y-63327030D01*
X89596850Y-63337520D01*
X89617893Y-63350132D01*
X89637599Y-63364747D01*
X89655777Y-63381223D01*
X89672253Y-63399401D01*
X89686868Y-63419107D01*
X89699480Y-63440150D01*
X89709970Y-63462329D01*
X89718235Y-63485428D01*
X89724196Y-63509227D01*
X89727796Y-63533495D01*
X89729000Y-63557999D01*
X89729000Y-64458001D01*
X89727796Y-64482505D01*
X89724196Y-64506773D01*
X89718235Y-64530572D01*
X89709970Y-64553671D01*
X89699480Y-64575850D01*
X89686868Y-64596893D01*
X89672253Y-64616599D01*
X89655777Y-64634777D01*
X89637599Y-64651253D01*
X89617893Y-64665868D01*
X89596850Y-64678480D01*
X89574671Y-64688970D01*
X89551572Y-64697235D01*
X89527773Y-64703196D01*
X89503505Y-64706796D01*
X89479001Y-64708000D01*
X88828999Y-64708000D01*
X88804495Y-64706796D01*
X88780227Y-64703196D01*
X88756428Y-64697235D01*
X88733329Y-64688970D01*
X88711150Y-64678480D01*
X88690107Y-64665868D01*
X88670401Y-64651253D01*
X88652223Y-64634777D01*
X88635747Y-64616599D01*
X88621132Y-64596893D01*
X88608520Y-64575850D01*
X88598030Y-64553671D01*
X88589765Y-64530572D01*
X88583804Y-64506773D01*
X88580204Y-64482505D01*
X88579000Y-64458001D01*
X88579000Y-63557999D01*
X88580204Y-63533495D01*
X88583804Y-63509227D01*
X88589765Y-63485428D01*
X88598030Y-63462329D01*
X88608520Y-63440150D01*
X88621132Y-63419107D01*
X88635747Y-63399401D01*
X88652223Y-63381223D01*
X88670401Y-63364747D01*
X88690107Y-63350132D01*
X88711150Y-63337520D01*
X88733329Y-63327030D01*
X88756428Y-63318765D01*
X88780227Y-63312804D01*
X88804495Y-63309204D01*
X88828999Y-63308000D01*
X89479001Y-63308000D01*
X89503505Y-63309204D01*
X89503505Y-63309204D01*
G37*
D11*
X89154000Y-64008000D03*
D10*
G36*
X87453505Y-63309204D02*
X87477773Y-63312804D01*
X87501572Y-63318765D01*
X87524671Y-63327030D01*
X87546850Y-63337520D01*
X87567893Y-63350132D01*
X87587599Y-63364747D01*
X87605777Y-63381223D01*
X87622253Y-63399401D01*
X87636868Y-63419107D01*
X87649480Y-63440150D01*
X87659970Y-63462329D01*
X87668235Y-63485428D01*
X87674196Y-63509227D01*
X87677796Y-63533495D01*
X87679000Y-63557999D01*
X87679000Y-64458001D01*
X87677796Y-64482505D01*
X87674196Y-64506773D01*
X87668235Y-64530572D01*
X87659970Y-64553671D01*
X87649480Y-64575850D01*
X87636868Y-64596893D01*
X87622253Y-64616599D01*
X87605777Y-64634777D01*
X87587599Y-64651253D01*
X87567893Y-64665868D01*
X87546850Y-64678480D01*
X87524671Y-64688970D01*
X87501572Y-64697235D01*
X87477773Y-64703196D01*
X87453505Y-64706796D01*
X87429001Y-64708000D01*
X86778999Y-64708000D01*
X86754495Y-64706796D01*
X86730227Y-64703196D01*
X86706428Y-64697235D01*
X86683329Y-64688970D01*
X86661150Y-64678480D01*
X86640107Y-64665868D01*
X86620401Y-64651253D01*
X86602223Y-64634777D01*
X86585747Y-64616599D01*
X86571132Y-64596893D01*
X86558520Y-64575850D01*
X86548030Y-64553671D01*
X86539765Y-64530572D01*
X86533804Y-64506773D01*
X86530204Y-64482505D01*
X86529000Y-64458001D01*
X86529000Y-63557999D01*
X86530204Y-63533495D01*
X86533804Y-63509227D01*
X86539765Y-63485428D01*
X86548030Y-63462329D01*
X86558520Y-63440150D01*
X86571132Y-63419107D01*
X86585747Y-63399401D01*
X86602223Y-63381223D01*
X86620401Y-63364747D01*
X86640107Y-63350132D01*
X86661150Y-63337520D01*
X86683329Y-63327030D01*
X86706428Y-63318765D01*
X86730227Y-63312804D01*
X86754495Y-63309204D01*
X86778999Y-63308000D01*
X87429001Y-63308000D01*
X87453505Y-63309204D01*
X87453505Y-63309204D01*
G37*
D11*
X87104000Y-64008000D03*
G04 #@! TD*
D10*
G04 #@! TO.C,R1*
G36*
X32108505Y-109029204D02*
X32132773Y-109032804D01*
X32156572Y-109038765D01*
X32179671Y-109047030D01*
X32201850Y-109057520D01*
X32222893Y-109070132D01*
X32242599Y-109084747D01*
X32260777Y-109101223D01*
X32277253Y-109119401D01*
X32291868Y-109139107D01*
X32304480Y-109160150D01*
X32314970Y-109182329D01*
X32323235Y-109205428D01*
X32329196Y-109229227D01*
X32332796Y-109253495D01*
X32334000Y-109277999D01*
X32334000Y-110178001D01*
X32332796Y-110202505D01*
X32329196Y-110226773D01*
X32323235Y-110250572D01*
X32314970Y-110273671D01*
X32304480Y-110295850D01*
X32291868Y-110316893D01*
X32277253Y-110336599D01*
X32260777Y-110354777D01*
X32242599Y-110371253D01*
X32222893Y-110385868D01*
X32201850Y-110398480D01*
X32179671Y-110408970D01*
X32156572Y-110417235D01*
X32132773Y-110423196D01*
X32108505Y-110426796D01*
X32084001Y-110428000D01*
X31433999Y-110428000D01*
X31409495Y-110426796D01*
X31385227Y-110423196D01*
X31361428Y-110417235D01*
X31338329Y-110408970D01*
X31316150Y-110398480D01*
X31295107Y-110385868D01*
X31275401Y-110371253D01*
X31257223Y-110354777D01*
X31240747Y-110336599D01*
X31226132Y-110316893D01*
X31213520Y-110295850D01*
X31203030Y-110273671D01*
X31194765Y-110250572D01*
X31188804Y-110226773D01*
X31185204Y-110202505D01*
X31184000Y-110178001D01*
X31184000Y-109277999D01*
X31185204Y-109253495D01*
X31188804Y-109229227D01*
X31194765Y-109205428D01*
X31203030Y-109182329D01*
X31213520Y-109160150D01*
X31226132Y-109139107D01*
X31240747Y-109119401D01*
X31257223Y-109101223D01*
X31275401Y-109084747D01*
X31295107Y-109070132D01*
X31316150Y-109057520D01*
X31338329Y-109047030D01*
X31361428Y-109038765D01*
X31385227Y-109032804D01*
X31409495Y-109029204D01*
X31433999Y-109028000D01*
X32084001Y-109028000D01*
X32108505Y-109029204D01*
X32108505Y-109029204D01*
G37*
D11*
X31759000Y-109728000D03*
D10*
G36*
X30058505Y-109029204D02*
X30082773Y-109032804D01*
X30106572Y-109038765D01*
X30129671Y-109047030D01*
X30151850Y-109057520D01*
X30172893Y-109070132D01*
X30192599Y-109084747D01*
X30210777Y-109101223D01*
X30227253Y-109119401D01*
X30241868Y-109139107D01*
X30254480Y-109160150D01*
X30264970Y-109182329D01*
X30273235Y-109205428D01*
X30279196Y-109229227D01*
X30282796Y-109253495D01*
X30284000Y-109277999D01*
X30284000Y-110178001D01*
X30282796Y-110202505D01*
X30279196Y-110226773D01*
X30273235Y-110250572D01*
X30264970Y-110273671D01*
X30254480Y-110295850D01*
X30241868Y-110316893D01*
X30227253Y-110336599D01*
X30210777Y-110354777D01*
X30192599Y-110371253D01*
X30172893Y-110385868D01*
X30151850Y-110398480D01*
X30129671Y-110408970D01*
X30106572Y-110417235D01*
X30082773Y-110423196D01*
X30058505Y-110426796D01*
X30034001Y-110428000D01*
X29383999Y-110428000D01*
X29359495Y-110426796D01*
X29335227Y-110423196D01*
X29311428Y-110417235D01*
X29288329Y-110408970D01*
X29266150Y-110398480D01*
X29245107Y-110385868D01*
X29225401Y-110371253D01*
X29207223Y-110354777D01*
X29190747Y-110336599D01*
X29176132Y-110316893D01*
X29163520Y-110295850D01*
X29153030Y-110273671D01*
X29144765Y-110250572D01*
X29138804Y-110226773D01*
X29135204Y-110202505D01*
X29134000Y-110178001D01*
X29134000Y-109277999D01*
X29135204Y-109253495D01*
X29138804Y-109229227D01*
X29144765Y-109205428D01*
X29153030Y-109182329D01*
X29163520Y-109160150D01*
X29176132Y-109139107D01*
X29190747Y-109119401D01*
X29207223Y-109101223D01*
X29225401Y-109084747D01*
X29245107Y-109070132D01*
X29266150Y-109057520D01*
X29288329Y-109047030D01*
X29311428Y-109038765D01*
X29335227Y-109032804D01*
X29359495Y-109029204D01*
X29383999Y-109028000D01*
X30034001Y-109028000D01*
X30058505Y-109029204D01*
X30058505Y-109029204D01*
G37*
D11*
X29709000Y-109728000D03*
G04 #@! TD*
D10*
G04 #@! TO.C,R6*
G36*
X182338505Y-74864204D02*
X182362773Y-74867804D01*
X182386572Y-74873765D01*
X182409671Y-74882030D01*
X182431850Y-74892520D01*
X182452893Y-74905132D01*
X182472599Y-74919747D01*
X182490777Y-74936223D01*
X182507253Y-74954401D01*
X182521868Y-74974107D01*
X182534480Y-74995150D01*
X182544970Y-75017329D01*
X182553235Y-75040428D01*
X182559196Y-75064227D01*
X182562796Y-75088495D01*
X182564000Y-75112999D01*
X182564000Y-75763001D01*
X182562796Y-75787505D01*
X182559196Y-75811773D01*
X182553235Y-75835572D01*
X182544970Y-75858671D01*
X182534480Y-75880850D01*
X182521868Y-75901893D01*
X182507253Y-75921599D01*
X182490777Y-75939777D01*
X182472599Y-75956253D01*
X182452893Y-75970868D01*
X182431850Y-75983480D01*
X182409671Y-75993970D01*
X182386572Y-76002235D01*
X182362773Y-76008196D01*
X182338505Y-76011796D01*
X182314001Y-76013000D01*
X181413999Y-76013000D01*
X181389495Y-76011796D01*
X181365227Y-76008196D01*
X181341428Y-76002235D01*
X181318329Y-75993970D01*
X181296150Y-75983480D01*
X181275107Y-75970868D01*
X181255401Y-75956253D01*
X181237223Y-75939777D01*
X181220747Y-75921599D01*
X181206132Y-75901893D01*
X181193520Y-75880850D01*
X181183030Y-75858671D01*
X181174765Y-75835572D01*
X181168804Y-75811773D01*
X181165204Y-75787505D01*
X181164000Y-75763001D01*
X181164000Y-75112999D01*
X181165204Y-75088495D01*
X181168804Y-75064227D01*
X181174765Y-75040428D01*
X181183030Y-75017329D01*
X181193520Y-74995150D01*
X181206132Y-74974107D01*
X181220747Y-74954401D01*
X181237223Y-74936223D01*
X181255401Y-74919747D01*
X181275107Y-74905132D01*
X181296150Y-74892520D01*
X181318329Y-74882030D01*
X181341428Y-74873765D01*
X181365227Y-74867804D01*
X181389495Y-74864204D01*
X181413999Y-74863000D01*
X182314001Y-74863000D01*
X182338505Y-74864204D01*
X182338505Y-74864204D01*
G37*
D11*
X181864000Y-75438000D03*
D10*
G36*
X182338505Y-72814204D02*
X182362773Y-72817804D01*
X182386572Y-72823765D01*
X182409671Y-72832030D01*
X182431850Y-72842520D01*
X182452893Y-72855132D01*
X182472599Y-72869747D01*
X182490777Y-72886223D01*
X182507253Y-72904401D01*
X182521868Y-72924107D01*
X182534480Y-72945150D01*
X182544970Y-72967329D01*
X182553235Y-72990428D01*
X182559196Y-73014227D01*
X182562796Y-73038495D01*
X182564000Y-73062999D01*
X182564000Y-73713001D01*
X182562796Y-73737505D01*
X182559196Y-73761773D01*
X182553235Y-73785572D01*
X182544970Y-73808671D01*
X182534480Y-73830850D01*
X182521868Y-73851893D01*
X182507253Y-73871599D01*
X182490777Y-73889777D01*
X182472599Y-73906253D01*
X182452893Y-73920868D01*
X182431850Y-73933480D01*
X182409671Y-73943970D01*
X182386572Y-73952235D01*
X182362773Y-73958196D01*
X182338505Y-73961796D01*
X182314001Y-73963000D01*
X181413999Y-73963000D01*
X181389495Y-73961796D01*
X181365227Y-73958196D01*
X181341428Y-73952235D01*
X181318329Y-73943970D01*
X181296150Y-73933480D01*
X181275107Y-73920868D01*
X181255401Y-73906253D01*
X181237223Y-73889777D01*
X181220747Y-73871599D01*
X181206132Y-73851893D01*
X181193520Y-73830850D01*
X181183030Y-73808671D01*
X181174765Y-73785572D01*
X181168804Y-73761773D01*
X181165204Y-73737505D01*
X181164000Y-73713001D01*
X181164000Y-73062999D01*
X181165204Y-73038495D01*
X181168804Y-73014227D01*
X181174765Y-72990428D01*
X181183030Y-72967329D01*
X181193520Y-72945150D01*
X181206132Y-72924107D01*
X181220747Y-72904401D01*
X181237223Y-72886223D01*
X181255401Y-72869747D01*
X181275107Y-72855132D01*
X181296150Y-72842520D01*
X181318329Y-72832030D01*
X181341428Y-72823765D01*
X181365227Y-72817804D01*
X181389495Y-72814204D01*
X181413999Y-72813000D01*
X182314001Y-72813000D01*
X182338505Y-72814204D01*
X182338505Y-72814204D01*
G37*
D11*
X181864000Y-73388000D03*
G04 #@! TD*
D10*
G04 #@! TO.C,R7*
G36*
X101178505Y-109029204D02*
X101202773Y-109032804D01*
X101226572Y-109038765D01*
X101249671Y-109047030D01*
X101271850Y-109057520D01*
X101292893Y-109070132D01*
X101312599Y-109084747D01*
X101330777Y-109101223D01*
X101347253Y-109119401D01*
X101361868Y-109139107D01*
X101374480Y-109160150D01*
X101384970Y-109182329D01*
X101393235Y-109205428D01*
X101399196Y-109229227D01*
X101402796Y-109253495D01*
X101404000Y-109277999D01*
X101404000Y-110178001D01*
X101402796Y-110202505D01*
X101399196Y-110226773D01*
X101393235Y-110250572D01*
X101384970Y-110273671D01*
X101374480Y-110295850D01*
X101361868Y-110316893D01*
X101347253Y-110336599D01*
X101330777Y-110354777D01*
X101312599Y-110371253D01*
X101292893Y-110385868D01*
X101271850Y-110398480D01*
X101249671Y-110408970D01*
X101226572Y-110417235D01*
X101202773Y-110423196D01*
X101178505Y-110426796D01*
X101154001Y-110428000D01*
X100503999Y-110428000D01*
X100479495Y-110426796D01*
X100455227Y-110423196D01*
X100431428Y-110417235D01*
X100408329Y-110408970D01*
X100386150Y-110398480D01*
X100365107Y-110385868D01*
X100345401Y-110371253D01*
X100327223Y-110354777D01*
X100310747Y-110336599D01*
X100296132Y-110316893D01*
X100283520Y-110295850D01*
X100273030Y-110273671D01*
X100264765Y-110250572D01*
X100258804Y-110226773D01*
X100255204Y-110202505D01*
X100254000Y-110178001D01*
X100254000Y-109277999D01*
X100255204Y-109253495D01*
X100258804Y-109229227D01*
X100264765Y-109205428D01*
X100273030Y-109182329D01*
X100283520Y-109160150D01*
X100296132Y-109139107D01*
X100310747Y-109119401D01*
X100327223Y-109101223D01*
X100345401Y-109084747D01*
X100365107Y-109070132D01*
X100386150Y-109057520D01*
X100408329Y-109047030D01*
X100431428Y-109038765D01*
X100455227Y-109032804D01*
X100479495Y-109029204D01*
X100503999Y-109028000D01*
X101154001Y-109028000D01*
X101178505Y-109029204D01*
X101178505Y-109029204D01*
G37*
D11*
X100829000Y-109728000D03*
D10*
G36*
X103228505Y-109029204D02*
X103252773Y-109032804D01*
X103276572Y-109038765D01*
X103299671Y-109047030D01*
X103321850Y-109057520D01*
X103342893Y-109070132D01*
X103362599Y-109084747D01*
X103380777Y-109101223D01*
X103397253Y-109119401D01*
X103411868Y-109139107D01*
X103424480Y-109160150D01*
X103434970Y-109182329D01*
X103443235Y-109205428D01*
X103449196Y-109229227D01*
X103452796Y-109253495D01*
X103454000Y-109277999D01*
X103454000Y-110178001D01*
X103452796Y-110202505D01*
X103449196Y-110226773D01*
X103443235Y-110250572D01*
X103434970Y-110273671D01*
X103424480Y-110295850D01*
X103411868Y-110316893D01*
X103397253Y-110336599D01*
X103380777Y-110354777D01*
X103362599Y-110371253D01*
X103342893Y-110385868D01*
X103321850Y-110398480D01*
X103299671Y-110408970D01*
X103276572Y-110417235D01*
X103252773Y-110423196D01*
X103228505Y-110426796D01*
X103204001Y-110428000D01*
X102553999Y-110428000D01*
X102529495Y-110426796D01*
X102505227Y-110423196D01*
X102481428Y-110417235D01*
X102458329Y-110408970D01*
X102436150Y-110398480D01*
X102415107Y-110385868D01*
X102395401Y-110371253D01*
X102377223Y-110354777D01*
X102360747Y-110336599D01*
X102346132Y-110316893D01*
X102333520Y-110295850D01*
X102323030Y-110273671D01*
X102314765Y-110250572D01*
X102308804Y-110226773D01*
X102305204Y-110202505D01*
X102304000Y-110178001D01*
X102304000Y-109277999D01*
X102305204Y-109253495D01*
X102308804Y-109229227D01*
X102314765Y-109205428D01*
X102323030Y-109182329D01*
X102333520Y-109160150D01*
X102346132Y-109139107D01*
X102360747Y-109119401D01*
X102377223Y-109101223D01*
X102395401Y-109084747D01*
X102415107Y-109070132D01*
X102436150Y-109057520D01*
X102458329Y-109047030D01*
X102481428Y-109038765D01*
X102505227Y-109032804D01*
X102529495Y-109029204D01*
X102553999Y-109028000D01*
X103204001Y-109028000D01*
X103228505Y-109029204D01*
X103228505Y-109029204D01*
G37*
D11*
X102879000Y-109728000D03*
G04 #@! TD*
D10*
G04 #@! TO.C,R12*
G36*
X172298505Y-109029204D02*
X172322773Y-109032804D01*
X172346572Y-109038765D01*
X172369671Y-109047030D01*
X172391850Y-109057520D01*
X172412893Y-109070132D01*
X172432599Y-109084747D01*
X172450777Y-109101223D01*
X172467253Y-109119401D01*
X172481868Y-109139107D01*
X172494480Y-109160150D01*
X172504970Y-109182329D01*
X172513235Y-109205428D01*
X172519196Y-109229227D01*
X172522796Y-109253495D01*
X172524000Y-109277999D01*
X172524000Y-110178001D01*
X172522796Y-110202505D01*
X172519196Y-110226773D01*
X172513235Y-110250572D01*
X172504970Y-110273671D01*
X172494480Y-110295850D01*
X172481868Y-110316893D01*
X172467253Y-110336599D01*
X172450777Y-110354777D01*
X172432599Y-110371253D01*
X172412893Y-110385868D01*
X172391850Y-110398480D01*
X172369671Y-110408970D01*
X172346572Y-110417235D01*
X172322773Y-110423196D01*
X172298505Y-110426796D01*
X172274001Y-110428000D01*
X171623999Y-110428000D01*
X171599495Y-110426796D01*
X171575227Y-110423196D01*
X171551428Y-110417235D01*
X171528329Y-110408970D01*
X171506150Y-110398480D01*
X171485107Y-110385868D01*
X171465401Y-110371253D01*
X171447223Y-110354777D01*
X171430747Y-110336599D01*
X171416132Y-110316893D01*
X171403520Y-110295850D01*
X171393030Y-110273671D01*
X171384765Y-110250572D01*
X171378804Y-110226773D01*
X171375204Y-110202505D01*
X171374000Y-110178001D01*
X171374000Y-109277999D01*
X171375204Y-109253495D01*
X171378804Y-109229227D01*
X171384765Y-109205428D01*
X171393030Y-109182329D01*
X171403520Y-109160150D01*
X171416132Y-109139107D01*
X171430747Y-109119401D01*
X171447223Y-109101223D01*
X171465401Y-109084747D01*
X171485107Y-109070132D01*
X171506150Y-109057520D01*
X171528329Y-109047030D01*
X171551428Y-109038765D01*
X171575227Y-109032804D01*
X171599495Y-109029204D01*
X171623999Y-109028000D01*
X172274001Y-109028000D01*
X172298505Y-109029204D01*
X172298505Y-109029204D01*
G37*
D11*
X171949000Y-109728000D03*
D10*
G36*
X174348505Y-109029204D02*
X174372773Y-109032804D01*
X174396572Y-109038765D01*
X174419671Y-109047030D01*
X174441850Y-109057520D01*
X174462893Y-109070132D01*
X174482599Y-109084747D01*
X174500777Y-109101223D01*
X174517253Y-109119401D01*
X174531868Y-109139107D01*
X174544480Y-109160150D01*
X174554970Y-109182329D01*
X174563235Y-109205428D01*
X174569196Y-109229227D01*
X174572796Y-109253495D01*
X174574000Y-109277999D01*
X174574000Y-110178001D01*
X174572796Y-110202505D01*
X174569196Y-110226773D01*
X174563235Y-110250572D01*
X174554970Y-110273671D01*
X174544480Y-110295850D01*
X174531868Y-110316893D01*
X174517253Y-110336599D01*
X174500777Y-110354777D01*
X174482599Y-110371253D01*
X174462893Y-110385868D01*
X174441850Y-110398480D01*
X174419671Y-110408970D01*
X174396572Y-110417235D01*
X174372773Y-110423196D01*
X174348505Y-110426796D01*
X174324001Y-110428000D01*
X173673999Y-110428000D01*
X173649495Y-110426796D01*
X173625227Y-110423196D01*
X173601428Y-110417235D01*
X173578329Y-110408970D01*
X173556150Y-110398480D01*
X173535107Y-110385868D01*
X173515401Y-110371253D01*
X173497223Y-110354777D01*
X173480747Y-110336599D01*
X173466132Y-110316893D01*
X173453520Y-110295850D01*
X173443030Y-110273671D01*
X173434765Y-110250572D01*
X173428804Y-110226773D01*
X173425204Y-110202505D01*
X173424000Y-110178001D01*
X173424000Y-109277999D01*
X173425204Y-109253495D01*
X173428804Y-109229227D01*
X173434765Y-109205428D01*
X173443030Y-109182329D01*
X173453520Y-109160150D01*
X173466132Y-109139107D01*
X173480747Y-109119401D01*
X173497223Y-109101223D01*
X173515401Y-109084747D01*
X173535107Y-109070132D01*
X173556150Y-109057520D01*
X173578329Y-109047030D01*
X173601428Y-109038765D01*
X173625227Y-109032804D01*
X173649495Y-109029204D01*
X173673999Y-109028000D01*
X174324001Y-109028000D01*
X174348505Y-109029204D01*
X174348505Y-109029204D01*
G37*
D11*
X173999000Y-109728000D03*
G04 #@! TD*
D10*
G04 #@! TO.C,R17*
G36*
X108678505Y-71054204D02*
X108702773Y-71057804D01*
X108726572Y-71063765D01*
X108749671Y-71072030D01*
X108771850Y-71082520D01*
X108792893Y-71095132D01*
X108812599Y-71109747D01*
X108830777Y-71126223D01*
X108847253Y-71144401D01*
X108861868Y-71164107D01*
X108874480Y-71185150D01*
X108884970Y-71207329D01*
X108893235Y-71230428D01*
X108899196Y-71254227D01*
X108902796Y-71278495D01*
X108904000Y-71302999D01*
X108904000Y-71953001D01*
X108902796Y-71977505D01*
X108899196Y-72001773D01*
X108893235Y-72025572D01*
X108884970Y-72048671D01*
X108874480Y-72070850D01*
X108861868Y-72091893D01*
X108847253Y-72111599D01*
X108830777Y-72129777D01*
X108812599Y-72146253D01*
X108792893Y-72160868D01*
X108771850Y-72173480D01*
X108749671Y-72183970D01*
X108726572Y-72192235D01*
X108702773Y-72198196D01*
X108678505Y-72201796D01*
X108654001Y-72203000D01*
X107753999Y-72203000D01*
X107729495Y-72201796D01*
X107705227Y-72198196D01*
X107681428Y-72192235D01*
X107658329Y-72183970D01*
X107636150Y-72173480D01*
X107615107Y-72160868D01*
X107595401Y-72146253D01*
X107577223Y-72129777D01*
X107560747Y-72111599D01*
X107546132Y-72091893D01*
X107533520Y-72070850D01*
X107523030Y-72048671D01*
X107514765Y-72025572D01*
X107508804Y-72001773D01*
X107505204Y-71977505D01*
X107504000Y-71953001D01*
X107504000Y-71302999D01*
X107505204Y-71278495D01*
X107508804Y-71254227D01*
X107514765Y-71230428D01*
X107523030Y-71207329D01*
X107533520Y-71185150D01*
X107546132Y-71164107D01*
X107560747Y-71144401D01*
X107577223Y-71126223D01*
X107595401Y-71109747D01*
X107615107Y-71095132D01*
X107636150Y-71082520D01*
X107658329Y-71072030D01*
X107681428Y-71063765D01*
X107705227Y-71057804D01*
X107729495Y-71054204D01*
X107753999Y-71053000D01*
X108654001Y-71053000D01*
X108678505Y-71054204D01*
X108678505Y-71054204D01*
G37*
D11*
X108204000Y-71628000D03*
D10*
G36*
X108678505Y-73104204D02*
X108702773Y-73107804D01*
X108726572Y-73113765D01*
X108749671Y-73122030D01*
X108771850Y-73132520D01*
X108792893Y-73145132D01*
X108812599Y-73159747D01*
X108830777Y-73176223D01*
X108847253Y-73194401D01*
X108861868Y-73214107D01*
X108874480Y-73235150D01*
X108884970Y-73257329D01*
X108893235Y-73280428D01*
X108899196Y-73304227D01*
X108902796Y-73328495D01*
X108904000Y-73352999D01*
X108904000Y-74003001D01*
X108902796Y-74027505D01*
X108899196Y-74051773D01*
X108893235Y-74075572D01*
X108884970Y-74098671D01*
X108874480Y-74120850D01*
X108861868Y-74141893D01*
X108847253Y-74161599D01*
X108830777Y-74179777D01*
X108812599Y-74196253D01*
X108792893Y-74210868D01*
X108771850Y-74223480D01*
X108749671Y-74233970D01*
X108726572Y-74242235D01*
X108702773Y-74248196D01*
X108678505Y-74251796D01*
X108654001Y-74253000D01*
X107753999Y-74253000D01*
X107729495Y-74251796D01*
X107705227Y-74248196D01*
X107681428Y-74242235D01*
X107658329Y-74233970D01*
X107636150Y-74223480D01*
X107615107Y-74210868D01*
X107595401Y-74196253D01*
X107577223Y-74179777D01*
X107560747Y-74161599D01*
X107546132Y-74141893D01*
X107533520Y-74120850D01*
X107523030Y-74098671D01*
X107514765Y-74075572D01*
X107508804Y-74051773D01*
X107505204Y-74027505D01*
X107504000Y-74003001D01*
X107504000Y-73352999D01*
X107505204Y-73328495D01*
X107508804Y-73304227D01*
X107514765Y-73280428D01*
X107523030Y-73257329D01*
X107533520Y-73235150D01*
X107546132Y-73214107D01*
X107560747Y-73194401D01*
X107577223Y-73176223D01*
X107595401Y-73159747D01*
X107615107Y-73145132D01*
X107636150Y-73132520D01*
X107658329Y-73122030D01*
X107681428Y-73113765D01*
X107705227Y-73107804D01*
X107729495Y-73104204D01*
X107753999Y-73103000D01*
X108654001Y-73103000D01*
X108678505Y-73104204D01*
X108678505Y-73104204D01*
G37*
D11*
X108204000Y-73678000D03*
G04 #@! TD*
D10*
G04 #@! TO.C,R18*
G36*
X112488505Y-73104204D02*
X112512773Y-73107804D01*
X112536572Y-73113765D01*
X112559671Y-73122030D01*
X112581850Y-73132520D01*
X112602893Y-73145132D01*
X112622599Y-73159747D01*
X112640777Y-73176223D01*
X112657253Y-73194401D01*
X112671868Y-73214107D01*
X112684480Y-73235150D01*
X112694970Y-73257329D01*
X112703235Y-73280428D01*
X112709196Y-73304227D01*
X112712796Y-73328495D01*
X112714000Y-73352999D01*
X112714000Y-74003001D01*
X112712796Y-74027505D01*
X112709196Y-74051773D01*
X112703235Y-74075572D01*
X112694970Y-74098671D01*
X112684480Y-74120850D01*
X112671868Y-74141893D01*
X112657253Y-74161599D01*
X112640777Y-74179777D01*
X112622599Y-74196253D01*
X112602893Y-74210868D01*
X112581850Y-74223480D01*
X112559671Y-74233970D01*
X112536572Y-74242235D01*
X112512773Y-74248196D01*
X112488505Y-74251796D01*
X112464001Y-74253000D01*
X111563999Y-74253000D01*
X111539495Y-74251796D01*
X111515227Y-74248196D01*
X111491428Y-74242235D01*
X111468329Y-74233970D01*
X111446150Y-74223480D01*
X111425107Y-74210868D01*
X111405401Y-74196253D01*
X111387223Y-74179777D01*
X111370747Y-74161599D01*
X111356132Y-74141893D01*
X111343520Y-74120850D01*
X111333030Y-74098671D01*
X111324765Y-74075572D01*
X111318804Y-74051773D01*
X111315204Y-74027505D01*
X111314000Y-74003001D01*
X111314000Y-73352999D01*
X111315204Y-73328495D01*
X111318804Y-73304227D01*
X111324765Y-73280428D01*
X111333030Y-73257329D01*
X111343520Y-73235150D01*
X111356132Y-73214107D01*
X111370747Y-73194401D01*
X111387223Y-73176223D01*
X111405401Y-73159747D01*
X111425107Y-73145132D01*
X111446150Y-73132520D01*
X111468329Y-73122030D01*
X111491428Y-73113765D01*
X111515227Y-73107804D01*
X111539495Y-73104204D01*
X111563999Y-73103000D01*
X112464001Y-73103000D01*
X112488505Y-73104204D01*
X112488505Y-73104204D01*
G37*
D11*
X112014000Y-73678000D03*
D10*
G36*
X112488505Y-71054204D02*
X112512773Y-71057804D01*
X112536572Y-71063765D01*
X112559671Y-71072030D01*
X112581850Y-71082520D01*
X112602893Y-71095132D01*
X112622599Y-71109747D01*
X112640777Y-71126223D01*
X112657253Y-71144401D01*
X112671868Y-71164107D01*
X112684480Y-71185150D01*
X112694970Y-71207329D01*
X112703235Y-71230428D01*
X112709196Y-71254227D01*
X112712796Y-71278495D01*
X112714000Y-71302999D01*
X112714000Y-71953001D01*
X112712796Y-71977505D01*
X112709196Y-72001773D01*
X112703235Y-72025572D01*
X112694970Y-72048671D01*
X112684480Y-72070850D01*
X112671868Y-72091893D01*
X112657253Y-72111599D01*
X112640777Y-72129777D01*
X112622599Y-72146253D01*
X112602893Y-72160868D01*
X112581850Y-72173480D01*
X112559671Y-72183970D01*
X112536572Y-72192235D01*
X112512773Y-72198196D01*
X112488505Y-72201796D01*
X112464001Y-72203000D01*
X111563999Y-72203000D01*
X111539495Y-72201796D01*
X111515227Y-72198196D01*
X111491428Y-72192235D01*
X111468329Y-72183970D01*
X111446150Y-72173480D01*
X111425107Y-72160868D01*
X111405401Y-72146253D01*
X111387223Y-72129777D01*
X111370747Y-72111599D01*
X111356132Y-72091893D01*
X111343520Y-72070850D01*
X111333030Y-72048671D01*
X111324765Y-72025572D01*
X111318804Y-72001773D01*
X111315204Y-71977505D01*
X111314000Y-71953001D01*
X111314000Y-71302999D01*
X111315204Y-71278495D01*
X111318804Y-71254227D01*
X111324765Y-71230428D01*
X111333030Y-71207329D01*
X111343520Y-71185150D01*
X111356132Y-71164107D01*
X111370747Y-71144401D01*
X111387223Y-71126223D01*
X111405401Y-71109747D01*
X111425107Y-71095132D01*
X111446150Y-71082520D01*
X111468329Y-71072030D01*
X111491428Y-71063765D01*
X111515227Y-71057804D01*
X111539495Y-71054204D01*
X111563999Y-71053000D01*
X112464001Y-71053000D01*
X112488505Y-71054204D01*
X112488505Y-71054204D01*
G37*
D11*
X112014000Y-71628000D03*
G04 #@! TD*
D10*
G04 #@! TO.C,R19*
G36*
X116298505Y-71054204D02*
X116322773Y-71057804D01*
X116346572Y-71063765D01*
X116369671Y-71072030D01*
X116391850Y-71082520D01*
X116412893Y-71095132D01*
X116432599Y-71109747D01*
X116450777Y-71126223D01*
X116467253Y-71144401D01*
X116481868Y-71164107D01*
X116494480Y-71185150D01*
X116504970Y-71207329D01*
X116513235Y-71230428D01*
X116519196Y-71254227D01*
X116522796Y-71278495D01*
X116524000Y-71302999D01*
X116524000Y-71953001D01*
X116522796Y-71977505D01*
X116519196Y-72001773D01*
X116513235Y-72025572D01*
X116504970Y-72048671D01*
X116494480Y-72070850D01*
X116481868Y-72091893D01*
X116467253Y-72111599D01*
X116450777Y-72129777D01*
X116432599Y-72146253D01*
X116412893Y-72160868D01*
X116391850Y-72173480D01*
X116369671Y-72183970D01*
X116346572Y-72192235D01*
X116322773Y-72198196D01*
X116298505Y-72201796D01*
X116274001Y-72203000D01*
X115373999Y-72203000D01*
X115349495Y-72201796D01*
X115325227Y-72198196D01*
X115301428Y-72192235D01*
X115278329Y-72183970D01*
X115256150Y-72173480D01*
X115235107Y-72160868D01*
X115215401Y-72146253D01*
X115197223Y-72129777D01*
X115180747Y-72111599D01*
X115166132Y-72091893D01*
X115153520Y-72070850D01*
X115143030Y-72048671D01*
X115134765Y-72025572D01*
X115128804Y-72001773D01*
X115125204Y-71977505D01*
X115124000Y-71953001D01*
X115124000Y-71302999D01*
X115125204Y-71278495D01*
X115128804Y-71254227D01*
X115134765Y-71230428D01*
X115143030Y-71207329D01*
X115153520Y-71185150D01*
X115166132Y-71164107D01*
X115180747Y-71144401D01*
X115197223Y-71126223D01*
X115215401Y-71109747D01*
X115235107Y-71095132D01*
X115256150Y-71082520D01*
X115278329Y-71072030D01*
X115301428Y-71063765D01*
X115325227Y-71057804D01*
X115349495Y-71054204D01*
X115373999Y-71053000D01*
X116274001Y-71053000D01*
X116298505Y-71054204D01*
X116298505Y-71054204D01*
G37*
D11*
X115824000Y-71628000D03*
D10*
G36*
X116298505Y-73104204D02*
X116322773Y-73107804D01*
X116346572Y-73113765D01*
X116369671Y-73122030D01*
X116391850Y-73132520D01*
X116412893Y-73145132D01*
X116432599Y-73159747D01*
X116450777Y-73176223D01*
X116467253Y-73194401D01*
X116481868Y-73214107D01*
X116494480Y-73235150D01*
X116504970Y-73257329D01*
X116513235Y-73280428D01*
X116519196Y-73304227D01*
X116522796Y-73328495D01*
X116524000Y-73352999D01*
X116524000Y-74003001D01*
X116522796Y-74027505D01*
X116519196Y-74051773D01*
X116513235Y-74075572D01*
X116504970Y-74098671D01*
X116494480Y-74120850D01*
X116481868Y-74141893D01*
X116467253Y-74161599D01*
X116450777Y-74179777D01*
X116432599Y-74196253D01*
X116412893Y-74210868D01*
X116391850Y-74223480D01*
X116369671Y-74233970D01*
X116346572Y-74242235D01*
X116322773Y-74248196D01*
X116298505Y-74251796D01*
X116274001Y-74253000D01*
X115373999Y-74253000D01*
X115349495Y-74251796D01*
X115325227Y-74248196D01*
X115301428Y-74242235D01*
X115278329Y-74233970D01*
X115256150Y-74223480D01*
X115235107Y-74210868D01*
X115215401Y-74196253D01*
X115197223Y-74179777D01*
X115180747Y-74161599D01*
X115166132Y-74141893D01*
X115153520Y-74120850D01*
X115143030Y-74098671D01*
X115134765Y-74075572D01*
X115128804Y-74051773D01*
X115125204Y-74027505D01*
X115124000Y-74003001D01*
X115124000Y-73352999D01*
X115125204Y-73328495D01*
X115128804Y-73304227D01*
X115134765Y-73280428D01*
X115143030Y-73257329D01*
X115153520Y-73235150D01*
X115166132Y-73214107D01*
X115180747Y-73194401D01*
X115197223Y-73176223D01*
X115215401Y-73159747D01*
X115235107Y-73145132D01*
X115256150Y-73132520D01*
X115278329Y-73122030D01*
X115301428Y-73113765D01*
X115325227Y-73107804D01*
X115349495Y-73104204D01*
X115373999Y-73103000D01*
X116274001Y-73103000D01*
X116298505Y-73104204D01*
X116298505Y-73104204D01*
G37*
D11*
X115824000Y-73678000D03*
G04 #@! TD*
D10*
G04 #@! TO.C,R20*
G36*
X216503505Y-70294204D02*
X216527773Y-70297804D01*
X216551572Y-70303765D01*
X216574671Y-70312030D01*
X216596850Y-70322520D01*
X216617893Y-70335132D01*
X216637599Y-70349747D01*
X216655777Y-70366223D01*
X216672253Y-70384401D01*
X216686868Y-70404107D01*
X216699480Y-70425150D01*
X216709970Y-70447329D01*
X216718235Y-70470428D01*
X216724196Y-70494227D01*
X216727796Y-70518495D01*
X216729000Y-70542999D01*
X216729000Y-71443001D01*
X216727796Y-71467505D01*
X216724196Y-71491773D01*
X216718235Y-71515572D01*
X216709970Y-71538671D01*
X216699480Y-71560850D01*
X216686868Y-71581893D01*
X216672253Y-71601599D01*
X216655777Y-71619777D01*
X216637599Y-71636253D01*
X216617893Y-71650868D01*
X216596850Y-71663480D01*
X216574671Y-71673970D01*
X216551572Y-71682235D01*
X216527773Y-71688196D01*
X216503505Y-71691796D01*
X216479001Y-71693000D01*
X215828999Y-71693000D01*
X215804495Y-71691796D01*
X215780227Y-71688196D01*
X215756428Y-71682235D01*
X215733329Y-71673970D01*
X215711150Y-71663480D01*
X215690107Y-71650868D01*
X215670401Y-71636253D01*
X215652223Y-71619777D01*
X215635747Y-71601599D01*
X215621132Y-71581893D01*
X215608520Y-71560850D01*
X215598030Y-71538671D01*
X215589765Y-71515572D01*
X215583804Y-71491773D01*
X215580204Y-71467505D01*
X215579000Y-71443001D01*
X215579000Y-70542999D01*
X215580204Y-70518495D01*
X215583804Y-70494227D01*
X215589765Y-70470428D01*
X215598030Y-70447329D01*
X215608520Y-70425150D01*
X215621132Y-70404107D01*
X215635747Y-70384401D01*
X215652223Y-70366223D01*
X215670401Y-70349747D01*
X215690107Y-70335132D01*
X215711150Y-70322520D01*
X215733329Y-70312030D01*
X215756428Y-70303765D01*
X215780227Y-70297804D01*
X215804495Y-70294204D01*
X215828999Y-70293000D01*
X216479001Y-70293000D01*
X216503505Y-70294204D01*
X216503505Y-70294204D01*
G37*
D11*
X216154000Y-70993000D03*
D10*
G36*
X214453505Y-70294204D02*
X214477773Y-70297804D01*
X214501572Y-70303765D01*
X214524671Y-70312030D01*
X214546850Y-70322520D01*
X214567893Y-70335132D01*
X214587599Y-70349747D01*
X214605777Y-70366223D01*
X214622253Y-70384401D01*
X214636868Y-70404107D01*
X214649480Y-70425150D01*
X214659970Y-70447329D01*
X214668235Y-70470428D01*
X214674196Y-70494227D01*
X214677796Y-70518495D01*
X214679000Y-70542999D01*
X214679000Y-71443001D01*
X214677796Y-71467505D01*
X214674196Y-71491773D01*
X214668235Y-71515572D01*
X214659970Y-71538671D01*
X214649480Y-71560850D01*
X214636868Y-71581893D01*
X214622253Y-71601599D01*
X214605777Y-71619777D01*
X214587599Y-71636253D01*
X214567893Y-71650868D01*
X214546850Y-71663480D01*
X214524671Y-71673970D01*
X214501572Y-71682235D01*
X214477773Y-71688196D01*
X214453505Y-71691796D01*
X214429001Y-71693000D01*
X213778999Y-71693000D01*
X213754495Y-71691796D01*
X213730227Y-71688196D01*
X213706428Y-71682235D01*
X213683329Y-71673970D01*
X213661150Y-71663480D01*
X213640107Y-71650868D01*
X213620401Y-71636253D01*
X213602223Y-71619777D01*
X213585747Y-71601599D01*
X213571132Y-71581893D01*
X213558520Y-71560850D01*
X213548030Y-71538671D01*
X213539765Y-71515572D01*
X213533804Y-71491773D01*
X213530204Y-71467505D01*
X213529000Y-71443001D01*
X213529000Y-70542999D01*
X213530204Y-70518495D01*
X213533804Y-70494227D01*
X213539765Y-70470428D01*
X213548030Y-70447329D01*
X213558520Y-70425150D01*
X213571132Y-70404107D01*
X213585747Y-70384401D01*
X213602223Y-70366223D01*
X213620401Y-70349747D01*
X213640107Y-70335132D01*
X213661150Y-70322520D01*
X213683329Y-70312030D01*
X213706428Y-70303765D01*
X213730227Y-70297804D01*
X213754495Y-70294204D01*
X213778999Y-70293000D01*
X214429001Y-70293000D01*
X214453505Y-70294204D01*
X214453505Y-70294204D01*
G37*
D11*
X214104000Y-70993000D03*
G04 #@! TD*
M02*
