M48
;DRILL file {KiCad (5.0.2)-1} date 2/9/2019 9:32:45 PM
;FORMAT={-:-/ absolute / inch / decimal}
FMAT,2
INCH,TZ
T1C0.0157
T2C0.0315
T3C0.0374
T4C0.0394
T5C0.0630
T6C0.0669
T7C0.1260
%
G90
G05
T1
X1.01Y-3.22
X1.06Y-4.32
X1.06Y-4.52
X1.06Y-4.72
X1.06Y-4.92
X1.21Y-3.22
X1.41Y-3.22
X3.36Y-2.52
X3.86Y-4.32
X3.86Y-4.52
X3.86Y-4.72
X3.86Y-4.92
X6.66Y-4.32
X6.66Y-4.52
X6.66Y-4.72
X6.66Y-4.92
X8.31Y-2.695
T2
X2.91Y-4.41
X2.91Y-4.51
X2.91Y-4.61
X2.91Y-4.71
X2.91Y-4.81
X2.91Y-4.91
X2.91Y-5.01
X2.91Y-5.11
X3.21Y-4.41
X3.21Y-4.51
X3.21Y-4.61
X3.21Y-4.71
X3.21Y-4.81
X3.21Y-4.91
X3.21Y-5.01
X3.21Y-5.11
X1.91Y-4.41
X1.91Y-4.51
X1.91Y-4.61
X1.91Y-4.71
X1.91Y-4.81
X1.91Y-4.91
X1.91Y-5.01
X1.91Y-5.11
X2.21Y-4.41
X2.21Y-4.51
X2.21Y-4.61
X2.21Y-4.71
X2.21Y-4.81
X2.21Y-4.91
X2.21Y-5.01
X2.21Y-5.11
X3.41Y-4.41
X3.41Y-4.51
X3.41Y-4.61
X3.41Y-4.71
X3.41Y-4.81
X3.41Y-4.91
X3.41Y-5.01
X3.41Y-5.11
X3.71Y-4.41
X3.71Y-4.51
X3.71Y-4.61
X3.71Y-4.71
X3.71Y-4.81
X3.71Y-4.91
X3.71Y-5.01
X3.71Y-5.11
X9.91Y-4.87
X10.0084Y-4.87
X8.01Y-4.42
X8.01Y-4.52
X8.01Y-4.62
X8.01Y-4.72
X8.01Y-4.82
X8.01Y-4.92
X8.01Y-5.02
X8.01Y-5.12
X8.31Y-4.42
X8.31Y-4.52
X8.31Y-4.62
X8.31Y-4.72
X8.31Y-4.82
X8.31Y-4.92
X8.31Y-5.02
X8.31Y-5.12
X5.16Y-2.67
X5.16Y-2.8669
X5.41Y-2.57
X5.41Y-2.87
X5.51Y-2.57
X5.51Y-2.87
X5.61Y-2.57
X5.61Y-2.87
X5.71Y-2.57
X5.71Y-2.87
X5.81Y-2.57
X5.81Y-2.87
X5.91Y-2.57
X5.91Y-2.87
X6.01Y-2.57
X6.01Y-2.87
X6.11Y-2.57
X6.11Y-2.87
X6.21Y-2.57
X6.21Y-2.87
X6.31Y-2.57
X6.31Y-2.87
X6.41Y-2.57
X6.41Y-2.87
X6.51Y-2.57
X6.51Y-2.87
X6.61Y-2.57
X6.61Y-2.87
X6.71Y-2.57
X6.71Y-2.87
X9.01Y-4.42
X9.01Y-4.52
X9.01Y-4.62
X9.01Y-4.72
X9.01Y-4.82
X9.01Y-4.92
X9.01Y-5.02
X9.01Y-5.12
X9.31Y-4.42
X9.31Y-4.52
X9.31Y-4.62
X9.31Y-4.72
X9.31Y-4.82
X9.31Y-4.92
X9.31Y-5.02
X9.31Y-5.12
X6.21Y-4.42
X6.21Y-4.52
X6.21Y-4.62
X6.21Y-4.72
X6.21Y-4.82
X6.21Y-4.92
X6.21Y-5.02
X6.21Y-5.12
X6.51Y-4.42
X6.51Y-4.52
X6.51Y-4.62
X6.51Y-4.72
X6.51Y-4.82
X6.51Y-4.92
X6.51Y-5.02
X6.51Y-5.12
X5.21Y-4.42
X5.21Y-4.52
X5.21Y-4.62
X5.21Y-4.72
X5.21Y-4.82
X5.21Y-4.92
X5.21Y-5.02
X5.21Y-5.12
X5.51Y-4.42
X5.51Y-4.52
X5.51Y-4.62
X5.51Y-4.72
X5.51Y-4.82
X5.51Y-4.92
X5.51Y-5.02
X5.51Y-5.12
X8.51Y-4.42
X8.51Y-4.52
X8.51Y-4.62
X8.51Y-4.72
X8.51Y-4.82
X8.51Y-4.92
X8.51Y-5.02
X8.51Y-5.12
X8.81Y-4.42
X8.81Y-4.52
X8.81Y-4.62
X8.81Y-4.72
X8.81Y-4.82
X8.81Y-4.92
X8.81Y-5.02
X8.81Y-5.12
X5.71Y-4.42
X5.71Y-4.52
X5.71Y-4.62
X5.71Y-4.72
X5.71Y-4.82
X5.71Y-4.92
X5.71Y-5.02
X5.71Y-5.12
X6.01Y-4.42
X6.01Y-4.52
X6.01Y-4.62
X6.01Y-4.72
X6.01Y-4.82
X6.01Y-4.92
X6.01Y-5.02
X6.01Y-5.12
X9.41Y-2.92
X9.41Y-3.02
X9.41Y-3.12
X9.41Y-3.22
X9.41Y-3.32
X9.41Y-3.42
X9.41Y-3.52
X9.41Y-3.62
X9.41Y-3.72
X9.41Y-3.82
X9.41Y-3.92
X9.41Y-4.02
X10.01Y-2.92
X10.01Y-3.02
X10.01Y-3.12
X10.01Y-3.22
X10.01Y-3.32
X10.01Y-3.42
X10.01Y-3.52
X10.01Y-3.62
X10.01Y-3.72
X10.01Y-3.82
X10.01Y-3.92
X10.01Y-4.02
X4.71Y-4.42
X4.71Y-4.52
X4.71Y-4.62
X4.71Y-4.72
X4.71Y-4.82
X4.71Y-4.92
X4.71Y-5.02
X4.71Y-5.12
X5.01Y-4.42
X5.01Y-4.52
X5.01Y-4.62
X5.01Y-4.72
X5.01Y-4.82
X5.01Y-4.92
X5.01Y-5.02
X5.01Y-5.12
X7.51Y-4.42
X7.51Y-4.52
X7.51Y-4.62
X7.51Y-4.72
X7.51Y-4.82
X7.51Y-4.92
X7.51Y-5.02
X7.51Y-5.12
X7.81Y-4.42
X7.81Y-4.52
X7.81Y-4.62
X7.81Y-4.72
X7.81Y-4.82
X7.81Y-4.92
X7.81Y-5.02
X7.81Y-5.12
X2.41Y-4.41
X2.41Y-4.51
X2.41Y-4.61
X2.41Y-4.71
X2.41Y-4.81
X2.41Y-4.91
X2.41Y-5.01
X2.41Y-5.11
X2.71Y-4.41
X2.71Y-4.51
X2.71Y-4.61
X2.71Y-4.71
X2.71Y-4.81
X2.71Y-4.91
X2.71Y-5.01
X2.71Y-5.11
T3
X8.61Y-3.12
X8.61Y-3.2184
X8.61Y-3.3169
X8.61Y-3.4153
X8.61Y-3.5137
X8.61Y-3.6121
X8.61Y-3.7106
X8.61Y-3.809
X8.61Y-3.9074
X8.61Y-4.0058
X8.61Y-4.1043
X8.11Y-3.12
X8.11Y-3.2184
X8.11Y-3.3169
X8.11Y-3.4153
X8.11Y-3.5137
X8.11Y-3.6121
X8.11Y-3.7106
X8.11Y-3.809
X8.11Y-3.9074
X8.11Y-4.0058
X8.11Y-4.1043
X4.81Y-3.12
X4.81Y-3.2184
X4.81Y-3.3169
X4.81Y-3.4153
X4.81Y-3.5137
X4.81Y-3.6121
X4.81Y-3.7106
X4.81Y-3.809
X4.81Y-3.9074
X4.81Y-4.0058
X4.81Y-4.1043
X2.51Y-3.12
X2.51Y-3.2184
X2.51Y-3.3169
X2.51Y-3.4153
X2.51Y-3.5137
X2.51Y-3.6121
X2.51Y-3.7106
X2.51Y-3.809
X2.51Y-3.9074
X2.51Y-4.0058
X2.51Y-4.1043
X4.3116Y-2.57
X4.41Y-2.57
X4.5084Y-2.57
X5.81Y-3.12
X5.81Y-3.2184
X5.81Y-3.3169
X5.81Y-3.4153
X5.81Y-3.5137
X5.81Y-3.6121
X5.81Y-3.7106
X5.81Y-3.809
X5.81Y-3.9074
X5.81Y-4.0058
X5.81Y-4.1043
X5.31Y-3.12
X5.31Y-3.2184
X5.31Y-3.3169
X5.31Y-3.4153
X5.31Y-3.5137
X5.31Y-3.6121
X5.31Y-3.7106
X5.31Y-3.809
X5.31Y-3.9074
X5.31Y-4.0058
X5.31Y-4.1043
X3.01Y-3.12
X3.01Y-3.2184
X3.01Y-3.3169
X3.01Y-3.4153
X3.01Y-3.5137
X3.01Y-3.6121
X3.01Y-3.7106
X3.01Y-3.809
X3.01Y-3.9074
X3.01Y-4.0058
X3.01Y-4.1043
X9.11Y-3.12
X9.11Y-3.2184
X9.11Y-3.3169
X9.11Y-3.4153
X9.11Y-3.5137
X9.11Y-3.6121
X9.11Y-3.7106
X9.11Y-3.809
X9.11Y-3.9074
X9.11Y-4.0058
X9.11Y-4.1043
X7.61Y-3.12
X7.61Y-3.2184
X7.61Y-3.3169
X7.61Y-3.4153
X7.61Y-3.5137
X7.61Y-3.6121
X7.61Y-3.7106
X7.61Y-3.809
X7.61Y-3.9074
X7.61Y-4.0058
X7.61Y-4.1043
X6.31Y-3.12
X6.31Y-3.2184
X6.31Y-3.3169
X6.31Y-3.4153
X6.31Y-3.5137
X6.31Y-3.6121
X6.31Y-3.7106
X6.31Y-3.809
X6.31Y-3.9074
X6.31Y-4.0058
X6.31Y-4.1043
X3.51Y-3.12
X3.51Y-3.2184
X3.51Y-3.3169
X3.51Y-3.4153
X3.51Y-3.5137
X3.51Y-3.6121
X3.51Y-3.7106
X3.51Y-3.809
X3.51Y-3.9074
X3.51Y-4.0058
X3.51Y-4.1043
X2.01Y-3.12
X2.01Y-3.2184
X2.01Y-3.3169
X2.01Y-3.4153
X2.01Y-3.5137
X2.01Y-3.6121
X2.01Y-3.7106
X2.01Y-3.809
X2.01Y-3.9074
X2.01Y-4.0058
X2.01Y-4.1043
T4
X8.135Y-2.52
X8.135Y-2.8153
X4.21Y-3.52
X4.21Y-3.62
X4.21Y-3.72
X4.21Y-3.82
X4.21Y-3.92
X4.21Y-4.02
X4.21Y-4.12
X4.21Y-4.22
X4.21Y-4.32
X4.21Y-4.42
X4.21Y-4.52
X4.21Y-4.62
X4.21Y-4.72
X4.21Y-4.82
X4.51Y-3.52
X4.51Y-3.62
X4.51Y-3.72
X4.51Y-3.82
X4.51Y-3.92
X4.51Y-4.02
X4.51Y-4.12
X4.51Y-4.22
X4.51Y-4.32
X4.51Y-4.42
X4.51Y-4.52
X4.51Y-4.62
X4.51Y-4.72
X4.51Y-4.82
X7.36Y-2.57
X7.46Y-2.57
X7.56Y-2.57
X7.66Y-2.57
X7.76Y-2.57
X7.86Y-2.57
X8.51Y-2.595
X8.61Y-2.595
X8.71Y-2.595
X9.51Y-4.92
X9.51Y-5.02
X9.51Y-5.12
X1.41Y-3.52
X1.41Y-3.62
X1.41Y-3.72
X1.41Y-3.82
X1.41Y-3.92
X1.41Y-4.02
X1.41Y-4.12
X1.41Y-4.22
X1.41Y-4.32
X1.41Y-4.42
X1.41Y-4.52
X1.41Y-4.62
X1.41Y-4.72
X1.41Y-4.82
X1.71Y-3.52
X1.71Y-3.62
X1.71Y-3.72
X1.71Y-3.82
X1.71Y-3.92
X1.71Y-4.02
X1.71Y-4.12
X1.71Y-4.22
X1.71Y-4.32
X1.71Y-4.42
X1.71Y-4.52
X1.71Y-4.62
X1.71Y-4.72
X1.71Y-4.82
X9.11Y-2.57
X9.41Y-2.67
X9.61Y-2.57
X7.01Y-3.52
X7.01Y-3.62
X7.01Y-3.72
X7.01Y-3.82
X7.01Y-3.92
X7.01Y-4.02
X7.01Y-4.12
X7.01Y-4.22
X7.01Y-4.32
X7.01Y-4.42
X7.01Y-4.52
X7.01Y-4.62
X7.01Y-4.72
X7.01Y-4.82
X7.31Y-3.52
X7.31Y-3.62
X7.31Y-3.72
X7.31Y-3.82
X7.31Y-3.92
X7.31Y-4.02
X7.31Y-4.12
X7.31Y-4.22
X7.31Y-4.32
X7.31Y-4.42
X7.31Y-4.52
X7.31Y-4.62
X7.31Y-4.72
X7.31Y-4.82
X7.36Y-2.82
X7.46Y-2.82
X2.61Y-2.67
X2.61Y-2.77
X2.71Y-2.67
X2.71Y-2.77
X2.81Y-2.67
X2.81Y-2.77
X2.91Y-2.67
X2.91Y-2.77
X3.01Y-2.67
X3.01Y-2.77
X3.11Y-2.67
X3.11Y-2.77
X3.21Y-2.67
X3.21Y-2.77
X3.31Y-2.67
X3.31Y-2.77
X3.41Y-2.67
X3.41Y-2.77
X3.51Y-2.67
X3.51Y-2.77
T5
X9.8738Y-4.47
X9.9919Y-4.655
X10.11Y-4.47
T6
X1.06Y-3.5523
X1.06Y-3.7082
X1.06Y-3.8641
X1.06Y-4.02
T7
X10.01Y-2.62
X10.01Y-5.22
X1.01Y-5.22
X1.01Y-2.62
X4.01Y-2.62
X7.01Y-2.62
X7.01Y-5.22
X4.01Y-5.22
T0
M30
