G04 #@! TF.GenerationSoftware,KiCad,Pcbnew,(5.0.2)-1*
G04 #@! TF.CreationDate,2019-02-09T21:32:43-06:00*
G04 #@! TF.ProjectId,Nixie-ProtoBoard,4e697869-652d-4507-926f-746f426f6172,1.0*
G04 #@! TF.SameCoordinates,Original*
G04 #@! TF.FileFunction,Paste,Bot*
G04 #@! TF.FilePolarity,Positive*
%FSLAX46Y46*%
G04 Gerber Fmt 4.6, Leading zero omitted, Abs format (unit mm)*
G04 Created by KiCad (PCBNEW (5.0.2)-1) date 2/9/2019 9:32:43 PM*
%MOMM*%
%LPD*%
G01*
G04 APERTURE LIST*
%ADD10C,0.100000*%
%ADD11C,1.150000*%
G04 APERTURE END LIST*
D10*
G04 #@! TO.C,R2*
G36*
X44908505Y-78549204D02*
X44932773Y-78552804D01*
X44956572Y-78558765D01*
X44979671Y-78567030D01*
X45001850Y-78577520D01*
X45022893Y-78590132D01*
X45042599Y-78604747D01*
X45060777Y-78621223D01*
X45077253Y-78639401D01*
X45091868Y-78659107D01*
X45104480Y-78680150D01*
X45114970Y-78702329D01*
X45123235Y-78725428D01*
X45129196Y-78749227D01*
X45132796Y-78773495D01*
X45134000Y-78797999D01*
X45134000Y-79698001D01*
X45132796Y-79722505D01*
X45129196Y-79746773D01*
X45123235Y-79770572D01*
X45114970Y-79793671D01*
X45104480Y-79815850D01*
X45091868Y-79836893D01*
X45077253Y-79856599D01*
X45060777Y-79874777D01*
X45042599Y-79891253D01*
X45022893Y-79905868D01*
X45001850Y-79918480D01*
X44979671Y-79928970D01*
X44956572Y-79937235D01*
X44932773Y-79943196D01*
X44908505Y-79946796D01*
X44884001Y-79948000D01*
X44233999Y-79948000D01*
X44209495Y-79946796D01*
X44185227Y-79943196D01*
X44161428Y-79937235D01*
X44138329Y-79928970D01*
X44116150Y-79918480D01*
X44095107Y-79905868D01*
X44075401Y-79891253D01*
X44057223Y-79874777D01*
X44040747Y-79856599D01*
X44026132Y-79836893D01*
X44013520Y-79815850D01*
X44003030Y-79793671D01*
X43994765Y-79770572D01*
X43988804Y-79746773D01*
X43985204Y-79722505D01*
X43984000Y-79698001D01*
X43984000Y-78797999D01*
X43985204Y-78773495D01*
X43988804Y-78749227D01*
X43994765Y-78725428D01*
X44003030Y-78702329D01*
X44013520Y-78680150D01*
X44026132Y-78659107D01*
X44040747Y-78639401D01*
X44057223Y-78621223D01*
X44075401Y-78604747D01*
X44095107Y-78590132D01*
X44116150Y-78577520D01*
X44138329Y-78567030D01*
X44161428Y-78558765D01*
X44185227Y-78552804D01*
X44209495Y-78549204D01*
X44233999Y-78548000D01*
X44884001Y-78548000D01*
X44908505Y-78549204D01*
X44908505Y-78549204D01*
G37*
D11*
X44559000Y-79248000D03*
D10*
G36*
X46958505Y-78549204D02*
X46982773Y-78552804D01*
X47006572Y-78558765D01*
X47029671Y-78567030D01*
X47051850Y-78577520D01*
X47072893Y-78590132D01*
X47092599Y-78604747D01*
X47110777Y-78621223D01*
X47127253Y-78639401D01*
X47141868Y-78659107D01*
X47154480Y-78680150D01*
X47164970Y-78702329D01*
X47173235Y-78725428D01*
X47179196Y-78749227D01*
X47182796Y-78773495D01*
X47184000Y-78797999D01*
X47184000Y-79698001D01*
X47182796Y-79722505D01*
X47179196Y-79746773D01*
X47173235Y-79770572D01*
X47164970Y-79793671D01*
X47154480Y-79815850D01*
X47141868Y-79836893D01*
X47127253Y-79856599D01*
X47110777Y-79874777D01*
X47092599Y-79891253D01*
X47072893Y-79905868D01*
X47051850Y-79918480D01*
X47029671Y-79928970D01*
X47006572Y-79937235D01*
X46982773Y-79943196D01*
X46958505Y-79946796D01*
X46934001Y-79948000D01*
X46283999Y-79948000D01*
X46259495Y-79946796D01*
X46235227Y-79943196D01*
X46211428Y-79937235D01*
X46188329Y-79928970D01*
X46166150Y-79918480D01*
X46145107Y-79905868D01*
X46125401Y-79891253D01*
X46107223Y-79874777D01*
X46090747Y-79856599D01*
X46076132Y-79836893D01*
X46063520Y-79815850D01*
X46053030Y-79793671D01*
X46044765Y-79770572D01*
X46038804Y-79746773D01*
X46035204Y-79722505D01*
X46034000Y-79698001D01*
X46034000Y-78797999D01*
X46035204Y-78773495D01*
X46038804Y-78749227D01*
X46044765Y-78725428D01*
X46053030Y-78702329D01*
X46063520Y-78680150D01*
X46076132Y-78659107D01*
X46090747Y-78639401D01*
X46107223Y-78621223D01*
X46125401Y-78604747D01*
X46145107Y-78590132D01*
X46166150Y-78577520D01*
X46188329Y-78567030D01*
X46211428Y-78558765D01*
X46235227Y-78552804D01*
X46259495Y-78549204D01*
X46283999Y-78548000D01*
X46934001Y-78548000D01*
X46958505Y-78549204D01*
X46958505Y-78549204D01*
G37*
D11*
X46609000Y-79248000D03*
G04 #@! TD*
D10*
G04 #@! TO.C,R3*
G36*
X59658505Y-78549204D02*
X59682773Y-78552804D01*
X59706572Y-78558765D01*
X59729671Y-78567030D01*
X59751850Y-78577520D01*
X59772893Y-78590132D01*
X59792599Y-78604747D01*
X59810777Y-78621223D01*
X59827253Y-78639401D01*
X59841868Y-78659107D01*
X59854480Y-78680150D01*
X59864970Y-78702329D01*
X59873235Y-78725428D01*
X59879196Y-78749227D01*
X59882796Y-78773495D01*
X59884000Y-78797999D01*
X59884000Y-79698001D01*
X59882796Y-79722505D01*
X59879196Y-79746773D01*
X59873235Y-79770572D01*
X59864970Y-79793671D01*
X59854480Y-79815850D01*
X59841868Y-79836893D01*
X59827253Y-79856599D01*
X59810777Y-79874777D01*
X59792599Y-79891253D01*
X59772893Y-79905868D01*
X59751850Y-79918480D01*
X59729671Y-79928970D01*
X59706572Y-79937235D01*
X59682773Y-79943196D01*
X59658505Y-79946796D01*
X59634001Y-79948000D01*
X58983999Y-79948000D01*
X58959495Y-79946796D01*
X58935227Y-79943196D01*
X58911428Y-79937235D01*
X58888329Y-79928970D01*
X58866150Y-79918480D01*
X58845107Y-79905868D01*
X58825401Y-79891253D01*
X58807223Y-79874777D01*
X58790747Y-79856599D01*
X58776132Y-79836893D01*
X58763520Y-79815850D01*
X58753030Y-79793671D01*
X58744765Y-79770572D01*
X58738804Y-79746773D01*
X58735204Y-79722505D01*
X58734000Y-79698001D01*
X58734000Y-78797999D01*
X58735204Y-78773495D01*
X58738804Y-78749227D01*
X58744765Y-78725428D01*
X58753030Y-78702329D01*
X58763520Y-78680150D01*
X58776132Y-78659107D01*
X58790747Y-78639401D01*
X58807223Y-78621223D01*
X58825401Y-78604747D01*
X58845107Y-78590132D01*
X58866150Y-78577520D01*
X58888329Y-78567030D01*
X58911428Y-78558765D01*
X58935227Y-78552804D01*
X58959495Y-78549204D01*
X58983999Y-78548000D01*
X59634001Y-78548000D01*
X59658505Y-78549204D01*
X59658505Y-78549204D01*
G37*
D11*
X59309000Y-79248000D03*
D10*
G36*
X57608505Y-78549204D02*
X57632773Y-78552804D01*
X57656572Y-78558765D01*
X57679671Y-78567030D01*
X57701850Y-78577520D01*
X57722893Y-78590132D01*
X57742599Y-78604747D01*
X57760777Y-78621223D01*
X57777253Y-78639401D01*
X57791868Y-78659107D01*
X57804480Y-78680150D01*
X57814970Y-78702329D01*
X57823235Y-78725428D01*
X57829196Y-78749227D01*
X57832796Y-78773495D01*
X57834000Y-78797999D01*
X57834000Y-79698001D01*
X57832796Y-79722505D01*
X57829196Y-79746773D01*
X57823235Y-79770572D01*
X57814970Y-79793671D01*
X57804480Y-79815850D01*
X57791868Y-79836893D01*
X57777253Y-79856599D01*
X57760777Y-79874777D01*
X57742599Y-79891253D01*
X57722893Y-79905868D01*
X57701850Y-79918480D01*
X57679671Y-79928970D01*
X57656572Y-79937235D01*
X57632773Y-79943196D01*
X57608505Y-79946796D01*
X57584001Y-79948000D01*
X56933999Y-79948000D01*
X56909495Y-79946796D01*
X56885227Y-79943196D01*
X56861428Y-79937235D01*
X56838329Y-79928970D01*
X56816150Y-79918480D01*
X56795107Y-79905868D01*
X56775401Y-79891253D01*
X56757223Y-79874777D01*
X56740747Y-79856599D01*
X56726132Y-79836893D01*
X56713520Y-79815850D01*
X56703030Y-79793671D01*
X56694765Y-79770572D01*
X56688804Y-79746773D01*
X56685204Y-79722505D01*
X56684000Y-79698001D01*
X56684000Y-78797999D01*
X56685204Y-78773495D01*
X56688804Y-78749227D01*
X56694765Y-78725428D01*
X56703030Y-78702329D01*
X56713520Y-78680150D01*
X56726132Y-78659107D01*
X56740747Y-78639401D01*
X56757223Y-78621223D01*
X56775401Y-78604747D01*
X56795107Y-78590132D01*
X56816150Y-78577520D01*
X56838329Y-78567030D01*
X56861428Y-78558765D01*
X56885227Y-78552804D01*
X56909495Y-78549204D01*
X56933999Y-78548000D01*
X57584001Y-78548000D01*
X57608505Y-78549204D01*
X57608505Y-78549204D01*
G37*
D11*
X57259000Y-79248000D03*
G04 #@! TD*
D10*
G04 #@! TO.C,R4*
G36*
X70308505Y-78549204D02*
X70332773Y-78552804D01*
X70356572Y-78558765D01*
X70379671Y-78567030D01*
X70401850Y-78577520D01*
X70422893Y-78590132D01*
X70442599Y-78604747D01*
X70460777Y-78621223D01*
X70477253Y-78639401D01*
X70491868Y-78659107D01*
X70504480Y-78680150D01*
X70514970Y-78702329D01*
X70523235Y-78725428D01*
X70529196Y-78749227D01*
X70532796Y-78773495D01*
X70534000Y-78797999D01*
X70534000Y-79698001D01*
X70532796Y-79722505D01*
X70529196Y-79746773D01*
X70523235Y-79770572D01*
X70514970Y-79793671D01*
X70504480Y-79815850D01*
X70491868Y-79836893D01*
X70477253Y-79856599D01*
X70460777Y-79874777D01*
X70442599Y-79891253D01*
X70422893Y-79905868D01*
X70401850Y-79918480D01*
X70379671Y-79928970D01*
X70356572Y-79937235D01*
X70332773Y-79943196D01*
X70308505Y-79946796D01*
X70284001Y-79948000D01*
X69633999Y-79948000D01*
X69609495Y-79946796D01*
X69585227Y-79943196D01*
X69561428Y-79937235D01*
X69538329Y-79928970D01*
X69516150Y-79918480D01*
X69495107Y-79905868D01*
X69475401Y-79891253D01*
X69457223Y-79874777D01*
X69440747Y-79856599D01*
X69426132Y-79836893D01*
X69413520Y-79815850D01*
X69403030Y-79793671D01*
X69394765Y-79770572D01*
X69388804Y-79746773D01*
X69385204Y-79722505D01*
X69384000Y-79698001D01*
X69384000Y-78797999D01*
X69385204Y-78773495D01*
X69388804Y-78749227D01*
X69394765Y-78725428D01*
X69403030Y-78702329D01*
X69413520Y-78680150D01*
X69426132Y-78659107D01*
X69440747Y-78639401D01*
X69457223Y-78621223D01*
X69475401Y-78604747D01*
X69495107Y-78590132D01*
X69516150Y-78577520D01*
X69538329Y-78567030D01*
X69561428Y-78558765D01*
X69585227Y-78552804D01*
X69609495Y-78549204D01*
X69633999Y-78548000D01*
X70284001Y-78548000D01*
X70308505Y-78549204D01*
X70308505Y-78549204D01*
G37*
D11*
X69959000Y-79248000D03*
D10*
G36*
X72358505Y-78549204D02*
X72382773Y-78552804D01*
X72406572Y-78558765D01*
X72429671Y-78567030D01*
X72451850Y-78577520D01*
X72472893Y-78590132D01*
X72492599Y-78604747D01*
X72510777Y-78621223D01*
X72527253Y-78639401D01*
X72541868Y-78659107D01*
X72554480Y-78680150D01*
X72564970Y-78702329D01*
X72573235Y-78725428D01*
X72579196Y-78749227D01*
X72582796Y-78773495D01*
X72584000Y-78797999D01*
X72584000Y-79698001D01*
X72582796Y-79722505D01*
X72579196Y-79746773D01*
X72573235Y-79770572D01*
X72564970Y-79793671D01*
X72554480Y-79815850D01*
X72541868Y-79836893D01*
X72527253Y-79856599D01*
X72510777Y-79874777D01*
X72492599Y-79891253D01*
X72472893Y-79905868D01*
X72451850Y-79918480D01*
X72429671Y-79928970D01*
X72406572Y-79937235D01*
X72382773Y-79943196D01*
X72358505Y-79946796D01*
X72334001Y-79948000D01*
X71683999Y-79948000D01*
X71659495Y-79946796D01*
X71635227Y-79943196D01*
X71611428Y-79937235D01*
X71588329Y-79928970D01*
X71566150Y-79918480D01*
X71545107Y-79905868D01*
X71525401Y-79891253D01*
X71507223Y-79874777D01*
X71490747Y-79856599D01*
X71476132Y-79836893D01*
X71463520Y-79815850D01*
X71453030Y-79793671D01*
X71444765Y-79770572D01*
X71438804Y-79746773D01*
X71435204Y-79722505D01*
X71434000Y-79698001D01*
X71434000Y-78797999D01*
X71435204Y-78773495D01*
X71438804Y-78749227D01*
X71444765Y-78725428D01*
X71453030Y-78702329D01*
X71463520Y-78680150D01*
X71476132Y-78659107D01*
X71490747Y-78639401D01*
X71507223Y-78621223D01*
X71525401Y-78604747D01*
X71545107Y-78590132D01*
X71566150Y-78577520D01*
X71588329Y-78567030D01*
X71611428Y-78558765D01*
X71635227Y-78552804D01*
X71659495Y-78549204D01*
X71683999Y-78548000D01*
X72334001Y-78548000D01*
X72358505Y-78549204D01*
X72358505Y-78549204D01*
G37*
D11*
X72009000Y-79248000D03*
G04 #@! TD*
D10*
G04 #@! TO.C,R5*
G36*
X85058505Y-78549204D02*
X85082773Y-78552804D01*
X85106572Y-78558765D01*
X85129671Y-78567030D01*
X85151850Y-78577520D01*
X85172893Y-78590132D01*
X85192599Y-78604747D01*
X85210777Y-78621223D01*
X85227253Y-78639401D01*
X85241868Y-78659107D01*
X85254480Y-78680150D01*
X85264970Y-78702329D01*
X85273235Y-78725428D01*
X85279196Y-78749227D01*
X85282796Y-78773495D01*
X85284000Y-78797999D01*
X85284000Y-79698001D01*
X85282796Y-79722505D01*
X85279196Y-79746773D01*
X85273235Y-79770572D01*
X85264970Y-79793671D01*
X85254480Y-79815850D01*
X85241868Y-79836893D01*
X85227253Y-79856599D01*
X85210777Y-79874777D01*
X85192599Y-79891253D01*
X85172893Y-79905868D01*
X85151850Y-79918480D01*
X85129671Y-79928970D01*
X85106572Y-79937235D01*
X85082773Y-79943196D01*
X85058505Y-79946796D01*
X85034001Y-79948000D01*
X84383999Y-79948000D01*
X84359495Y-79946796D01*
X84335227Y-79943196D01*
X84311428Y-79937235D01*
X84288329Y-79928970D01*
X84266150Y-79918480D01*
X84245107Y-79905868D01*
X84225401Y-79891253D01*
X84207223Y-79874777D01*
X84190747Y-79856599D01*
X84176132Y-79836893D01*
X84163520Y-79815850D01*
X84153030Y-79793671D01*
X84144765Y-79770572D01*
X84138804Y-79746773D01*
X84135204Y-79722505D01*
X84134000Y-79698001D01*
X84134000Y-78797999D01*
X84135204Y-78773495D01*
X84138804Y-78749227D01*
X84144765Y-78725428D01*
X84153030Y-78702329D01*
X84163520Y-78680150D01*
X84176132Y-78659107D01*
X84190747Y-78639401D01*
X84207223Y-78621223D01*
X84225401Y-78604747D01*
X84245107Y-78590132D01*
X84266150Y-78577520D01*
X84288329Y-78567030D01*
X84311428Y-78558765D01*
X84335227Y-78552804D01*
X84359495Y-78549204D01*
X84383999Y-78548000D01*
X85034001Y-78548000D01*
X85058505Y-78549204D01*
X85058505Y-78549204D01*
G37*
D11*
X84709000Y-79248000D03*
D10*
G36*
X83008505Y-78549204D02*
X83032773Y-78552804D01*
X83056572Y-78558765D01*
X83079671Y-78567030D01*
X83101850Y-78577520D01*
X83122893Y-78590132D01*
X83142599Y-78604747D01*
X83160777Y-78621223D01*
X83177253Y-78639401D01*
X83191868Y-78659107D01*
X83204480Y-78680150D01*
X83214970Y-78702329D01*
X83223235Y-78725428D01*
X83229196Y-78749227D01*
X83232796Y-78773495D01*
X83234000Y-78797999D01*
X83234000Y-79698001D01*
X83232796Y-79722505D01*
X83229196Y-79746773D01*
X83223235Y-79770572D01*
X83214970Y-79793671D01*
X83204480Y-79815850D01*
X83191868Y-79836893D01*
X83177253Y-79856599D01*
X83160777Y-79874777D01*
X83142599Y-79891253D01*
X83122893Y-79905868D01*
X83101850Y-79918480D01*
X83079671Y-79928970D01*
X83056572Y-79937235D01*
X83032773Y-79943196D01*
X83008505Y-79946796D01*
X82984001Y-79948000D01*
X82333999Y-79948000D01*
X82309495Y-79946796D01*
X82285227Y-79943196D01*
X82261428Y-79937235D01*
X82238329Y-79928970D01*
X82216150Y-79918480D01*
X82195107Y-79905868D01*
X82175401Y-79891253D01*
X82157223Y-79874777D01*
X82140747Y-79856599D01*
X82126132Y-79836893D01*
X82113520Y-79815850D01*
X82103030Y-79793671D01*
X82094765Y-79770572D01*
X82088804Y-79746773D01*
X82085204Y-79722505D01*
X82084000Y-79698001D01*
X82084000Y-78797999D01*
X82085204Y-78773495D01*
X82088804Y-78749227D01*
X82094765Y-78725428D01*
X82103030Y-78702329D01*
X82113520Y-78680150D01*
X82126132Y-78659107D01*
X82140747Y-78639401D01*
X82157223Y-78621223D01*
X82175401Y-78604747D01*
X82195107Y-78590132D01*
X82216150Y-78577520D01*
X82238329Y-78567030D01*
X82261428Y-78558765D01*
X82285227Y-78552804D01*
X82309495Y-78549204D01*
X82333999Y-78548000D01*
X82984001Y-78548000D01*
X83008505Y-78549204D01*
X83008505Y-78549204D01*
G37*
D11*
X82659000Y-79248000D03*
G04 #@! TD*
D10*
G04 #@! TO.C,R8*
G36*
X118078505Y-78549204D02*
X118102773Y-78552804D01*
X118126572Y-78558765D01*
X118149671Y-78567030D01*
X118171850Y-78577520D01*
X118192893Y-78590132D01*
X118212599Y-78604747D01*
X118230777Y-78621223D01*
X118247253Y-78639401D01*
X118261868Y-78659107D01*
X118274480Y-78680150D01*
X118284970Y-78702329D01*
X118293235Y-78725428D01*
X118299196Y-78749227D01*
X118302796Y-78773495D01*
X118304000Y-78797999D01*
X118304000Y-79698001D01*
X118302796Y-79722505D01*
X118299196Y-79746773D01*
X118293235Y-79770572D01*
X118284970Y-79793671D01*
X118274480Y-79815850D01*
X118261868Y-79836893D01*
X118247253Y-79856599D01*
X118230777Y-79874777D01*
X118212599Y-79891253D01*
X118192893Y-79905868D01*
X118171850Y-79918480D01*
X118149671Y-79928970D01*
X118126572Y-79937235D01*
X118102773Y-79943196D01*
X118078505Y-79946796D01*
X118054001Y-79948000D01*
X117403999Y-79948000D01*
X117379495Y-79946796D01*
X117355227Y-79943196D01*
X117331428Y-79937235D01*
X117308329Y-79928970D01*
X117286150Y-79918480D01*
X117265107Y-79905868D01*
X117245401Y-79891253D01*
X117227223Y-79874777D01*
X117210747Y-79856599D01*
X117196132Y-79836893D01*
X117183520Y-79815850D01*
X117173030Y-79793671D01*
X117164765Y-79770572D01*
X117158804Y-79746773D01*
X117155204Y-79722505D01*
X117154000Y-79698001D01*
X117154000Y-78797999D01*
X117155204Y-78773495D01*
X117158804Y-78749227D01*
X117164765Y-78725428D01*
X117173030Y-78702329D01*
X117183520Y-78680150D01*
X117196132Y-78659107D01*
X117210747Y-78639401D01*
X117227223Y-78621223D01*
X117245401Y-78604747D01*
X117265107Y-78590132D01*
X117286150Y-78577520D01*
X117308329Y-78567030D01*
X117331428Y-78558765D01*
X117355227Y-78552804D01*
X117379495Y-78549204D01*
X117403999Y-78548000D01*
X118054001Y-78548000D01*
X118078505Y-78549204D01*
X118078505Y-78549204D01*
G37*
D11*
X117729000Y-79248000D03*
D10*
G36*
X116028505Y-78549204D02*
X116052773Y-78552804D01*
X116076572Y-78558765D01*
X116099671Y-78567030D01*
X116121850Y-78577520D01*
X116142893Y-78590132D01*
X116162599Y-78604747D01*
X116180777Y-78621223D01*
X116197253Y-78639401D01*
X116211868Y-78659107D01*
X116224480Y-78680150D01*
X116234970Y-78702329D01*
X116243235Y-78725428D01*
X116249196Y-78749227D01*
X116252796Y-78773495D01*
X116254000Y-78797999D01*
X116254000Y-79698001D01*
X116252796Y-79722505D01*
X116249196Y-79746773D01*
X116243235Y-79770572D01*
X116234970Y-79793671D01*
X116224480Y-79815850D01*
X116211868Y-79836893D01*
X116197253Y-79856599D01*
X116180777Y-79874777D01*
X116162599Y-79891253D01*
X116142893Y-79905868D01*
X116121850Y-79918480D01*
X116099671Y-79928970D01*
X116076572Y-79937235D01*
X116052773Y-79943196D01*
X116028505Y-79946796D01*
X116004001Y-79948000D01*
X115353999Y-79948000D01*
X115329495Y-79946796D01*
X115305227Y-79943196D01*
X115281428Y-79937235D01*
X115258329Y-79928970D01*
X115236150Y-79918480D01*
X115215107Y-79905868D01*
X115195401Y-79891253D01*
X115177223Y-79874777D01*
X115160747Y-79856599D01*
X115146132Y-79836893D01*
X115133520Y-79815850D01*
X115123030Y-79793671D01*
X115114765Y-79770572D01*
X115108804Y-79746773D01*
X115105204Y-79722505D01*
X115104000Y-79698001D01*
X115104000Y-78797999D01*
X115105204Y-78773495D01*
X115108804Y-78749227D01*
X115114765Y-78725428D01*
X115123030Y-78702329D01*
X115133520Y-78680150D01*
X115146132Y-78659107D01*
X115160747Y-78639401D01*
X115177223Y-78621223D01*
X115195401Y-78604747D01*
X115215107Y-78590132D01*
X115236150Y-78577520D01*
X115258329Y-78567030D01*
X115281428Y-78558765D01*
X115305227Y-78552804D01*
X115329495Y-78549204D01*
X115353999Y-78548000D01*
X116004001Y-78548000D01*
X116028505Y-78549204D01*
X116028505Y-78549204D01*
G37*
D11*
X115679000Y-79248000D03*
G04 #@! TD*
D10*
G04 #@! TO.C,R9*
G36*
X128728505Y-78549204D02*
X128752773Y-78552804D01*
X128776572Y-78558765D01*
X128799671Y-78567030D01*
X128821850Y-78577520D01*
X128842893Y-78590132D01*
X128862599Y-78604747D01*
X128880777Y-78621223D01*
X128897253Y-78639401D01*
X128911868Y-78659107D01*
X128924480Y-78680150D01*
X128934970Y-78702329D01*
X128943235Y-78725428D01*
X128949196Y-78749227D01*
X128952796Y-78773495D01*
X128954000Y-78797999D01*
X128954000Y-79698001D01*
X128952796Y-79722505D01*
X128949196Y-79746773D01*
X128943235Y-79770572D01*
X128934970Y-79793671D01*
X128924480Y-79815850D01*
X128911868Y-79836893D01*
X128897253Y-79856599D01*
X128880777Y-79874777D01*
X128862599Y-79891253D01*
X128842893Y-79905868D01*
X128821850Y-79918480D01*
X128799671Y-79928970D01*
X128776572Y-79937235D01*
X128752773Y-79943196D01*
X128728505Y-79946796D01*
X128704001Y-79948000D01*
X128053999Y-79948000D01*
X128029495Y-79946796D01*
X128005227Y-79943196D01*
X127981428Y-79937235D01*
X127958329Y-79928970D01*
X127936150Y-79918480D01*
X127915107Y-79905868D01*
X127895401Y-79891253D01*
X127877223Y-79874777D01*
X127860747Y-79856599D01*
X127846132Y-79836893D01*
X127833520Y-79815850D01*
X127823030Y-79793671D01*
X127814765Y-79770572D01*
X127808804Y-79746773D01*
X127805204Y-79722505D01*
X127804000Y-79698001D01*
X127804000Y-78797999D01*
X127805204Y-78773495D01*
X127808804Y-78749227D01*
X127814765Y-78725428D01*
X127823030Y-78702329D01*
X127833520Y-78680150D01*
X127846132Y-78659107D01*
X127860747Y-78639401D01*
X127877223Y-78621223D01*
X127895401Y-78604747D01*
X127915107Y-78590132D01*
X127936150Y-78577520D01*
X127958329Y-78567030D01*
X127981428Y-78558765D01*
X128005227Y-78552804D01*
X128029495Y-78549204D01*
X128053999Y-78548000D01*
X128704001Y-78548000D01*
X128728505Y-78549204D01*
X128728505Y-78549204D01*
G37*
D11*
X128379000Y-79248000D03*
D10*
G36*
X130778505Y-78549204D02*
X130802773Y-78552804D01*
X130826572Y-78558765D01*
X130849671Y-78567030D01*
X130871850Y-78577520D01*
X130892893Y-78590132D01*
X130912599Y-78604747D01*
X130930777Y-78621223D01*
X130947253Y-78639401D01*
X130961868Y-78659107D01*
X130974480Y-78680150D01*
X130984970Y-78702329D01*
X130993235Y-78725428D01*
X130999196Y-78749227D01*
X131002796Y-78773495D01*
X131004000Y-78797999D01*
X131004000Y-79698001D01*
X131002796Y-79722505D01*
X130999196Y-79746773D01*
X130993235Y-79770572D01*
X130984970Y-79793671D01*
X130974480Y-79815850D01*
X130961868Y-79836893D01*
X130947253Y-79856599D01*
X130930777Y-79874777D01*
X130912599Y-79891253D01*
X130892893Y-79905868D01*
X130871850Y-79918480D01*
X130849671Y-79928970D01*
X130826572Y-79937235D01*
X130802773Y-79943196D01*
X130778505Y-79946796D01*
X130754001Y-79948000D01*
X130103999Y-79948000D01*
X130079495Y-79946796D01*
X130055227Y-79943196D01*
X130031428Y-79937235D01*
X130008329Y-79928970D01*
X129986150Y-79918480D01*
X129965107Y-79905868D01*
X129945401Y-79891253D01*
X129927223Y-79874777D01*
X129910747Y-79856599D01*
X129896132Y-79836893D01*
X129883520Y-79815850D01*
X129873030Y-79793671D01*
X129864765Y-79770572D01*
X129858804Y-79746773D01*
X129855204Y-79722505D01*
X129854000Y-79698001D01*
X129854000Y-78797999D01*
X129855204Y-78773495D01*
X129858804Y-78749227D01*
X129864765Y-78725428D01*
X129873030Y-78702329D01*
X129883520Y-78680150D01*
X129896132Y-78659107D01*
X129910747Y-78639401D01*
X129927223Y-78621223D01*
X129945401Y-78604747D01*
X129965107Y-78590132D01*
X129986150Y-78577520D01*
X130008329Y-78567030D01*
X130031428Y-78558765D01*
X130055227Y-78552804D01*
X130079495Y-78549204D01*
X130103999Y-78548000D01*
X130754001Y-78548000D01*
X130778505Y-78549204D01*
X130778505Y-78549204D01*
G37*
D11*
X130429000Y-79248000D03*
G04 #@! TD*
D10*
G04 #@! TO.C,R10*
G36*
X143478505Y-78549204D02*
X143502773Y-78552804D01*
X143526572Y-78558765D01*
X143549671Y-78567030D01*
X143571850Y-78577520D01*
X143592893Y-78590132D01*
X143612599Y-78604747D01*
X143630777Y-78621223D01*
X143647253Y-78639401D01*
X143661868Y-78659107D01*
X143674480Y-78680150D01*
X143684970Y-78702329D01*
X143693235Y-78725428D01*
X143699196Y-78749227D01*
X143702796Y-78773495D01*
X143704000Y-78797999D01*
X143704000Y-79698001D01*
X143702796Y-79722505D01*
X143699196Y-79746773D01*
X143693235Y-79770572D01*
X143684970Y-79793671D01*
X143674480Y-79815850D01*
X143661868Y-79836893D01*
X143647253Y-79856599D01*
X143630777Y-79874777D01*
X143612599Y-79891253D01*
X143592893Y-79905868D01*
X143571850Y-79918480D01*
X143549671Y-79928970D01*
X143526572Y-79937235D01*
X143502773Y-79943196D01*
X143478505Y-79946796D01*
X143454001Y-79948000D01*
X142803999Y-79948000D01*
X142779495Y-79946796D01*
X142755227Y-79943196D01*
X142731428Y-79937235D01*
X142708329Y-79928970D01*
X142686150Y-79918480D01*
X142665107Y-79905868D01*
X142645401Y-79891253D01*
X142627223Y-79874777D01*
X142610747Y-79856599D01*
X142596132Y-79836893D01*
X142583520Y-79815850D01*
X142573030Y-79793671D01*
X142564765Y-79770572D01*
X142558804Y-79746773D01*
X142555204Y-79722505D01*
X142554000Y-79698001D01*
X142554000Y-78797999D01*
X142555204Y-78773495D01*
X142558804Y-78749227D01*
X142564765Y-78725428D01*
X142573030Y-78702329D01*
X142583520Y-78680150D01*
X142596132Y-78659107D01*
X142610747Y-78639401D01*
X142627223Y-78621223D01*
X142645401Y-78604747D01*
X142665107Y-78590132D01*
X142686150Y-78577520D01*
X142708329Y-78567030D01*
X142731428Y-78558765D01*
X142755227Y-78552804D01*
X142779495Y-78549204D01*
X142803999Y-78548000D01*
X143454001Y-78548000D01*
X143478505Y-78549204D01*
X143478505Y-78549204D01*
G37*
D11*
X143129000Y-79248000D03*
D10*
G36*
X141428505Y-78549204D02*
X141452773Y-78552804D01*
X141476572Y-78558765D01*
X141499671Y-78567030D01*
X141521850Y-78577520D01*
X141542893Y-78590132D01*
X141562599Y-78604747D01*
X141580777Y-78621223D01*
X141597253Y-78639401D01*
X141611868Y-78659107D01*
X141624480Y-78680150D01*
X141634970Y-78702329D01*
X141643235Y-78725428D01*
X141649196Y-78749227D01*
X141652796Y-78773495D01*
X141654000Y-78797999D01*
X141654000Y-79698001D01*
X141652796Y-79722505D01*
X141649196Y-79746773D01*
X141643235Y-79770572D01*
X141634970Y-79793671D01*
X141624480Y-79815850D01*
X141611868Y-79836893D01*
X141597253Y-79856599D01*
X141580777Y-79874777D01*
X141562599Y-79891253D01*
X141542893Y-79905868D01*
X141521850Y-79918480D01*
X141499671Y-79928970D01*
X141476572Y-79937235D01*
X141452773Y-79943196D01*
X141428505Y-79946796D01*
X141404001Y-79948000D01*
X140753999Y-79948000D01*
X140729495Y-79946796D01*
X140705227Y-79943196D01*
X140681428Y-79937235D01*
X140658329Y-79928970D01*
X140636150Y-79918480D01*
X140615107Y-79905868D01*
X140595401Y-79891253D01*
X140577223Y-79874777D01*
X140560747Y-79856599D01*
X140546132Y-79836893D01*
X140533520Y-79815850D01*
X140523030Y-79793671D01*
X140514765Y-79770572D01*
X140508804Y-79746773D01*
X140505204Y-79722505D01*
X140504000Y-79698001D01*
X140504000Y-78797999D01*
X140505204Y-78773495D01*
X140508804Y-78749227D01*
X140514765Y-78725428D01*
X140523030Y-78702329D01*
X140533520Y-78680150D01*
X140546132Y-78659107D01*
X140560747Y-78639401D01*
X140577223Y-78621223D01*
X140595401Y-78604747D01*
X140615107Y-78590132D01*
X140636150Y-78577520D01*
X140658329Y-78567030D01*
X140681428Y-78558765D01*
X140705227Y-78552804D01*
X140729495Y-78549204D01*
X140753999Y-78548000D01*
X141404001Y-78548000D01*
X141428505Y-78549204D01*
X141428505Y-78549204D01*
G37*
D11*
X141079000Y-79248000D03*
G04 #@! TD*
D10*
G04 #@! TO.C,R11*
G36*
X154128505Y-78549204D02*
X154152773Y-78552804D01*
X154176572Y-78558765D01*
X154199671Y-78567030D01*
X154221850Y-78577520D01*
X154242893Y-78590132D01*
X154262599Y-78604747D01*
X154280777Y-78621223D01*
X154297253Y-78639401D01*
X154311868Y-78659107D01*
X154324480Y-78680150D01*
X154334970Y-78702329D01*
X154343235Y-78725428D01*
X154349196Y-78749227D01*
X154352796Y-78773495D01*
X154354000Y-78797999D01*
X154354000Y-79698001D01*
X154352796Y-79722505D01*
X154349196Y-79746773D01*
X154343235Y-79770572D01*
X154334970Y-79793671D01*
X154324480Y-79815850D01*
X154311868Y-79836893D01*
X154297253Y-79856599D01*
X154280777Y-79874777D01*
X154262599Y-79891253D01*
X154242893Y-79905868D01*
X154221850Y-79918480D01*
X154199671Y-79928970D01*
X154176572Y-79937235D01*
X154152773Y-79943196D01*
X154128505Y-79946796D01*
X154104001Y-79948000D01*
X153453999Y-79948000D01*
X153429495Y-79946796D01*
X153405227Y-79943196D01*
X153381428Y-79937235D01*
X153358329Y-79928970D01*
X153336150Y-79918480D01*
X153315107Y-79905868D01*
X153295401Y-79891253D01*
X153277223Y-79874777D01*
X153260747Y-79856599D01*
X153246132Y-79836893D01*
X153233520Y-79815850D01*
X153223030Y-79793671D01*
X153214765Y-79770572D01*
X153208804Y-79746773D01*
X153205204Y-79722505D01*
X153204000Y-79698001D01*
X153204000Y-78797999D01*
X153205204Y-78773495D01*
X153208804Y-78749227D01*
X153214765Y-78725428D01*
X153223030Y-78702329D01*
X153233520Y-78680150D01*
X153246132Y-78659107D01*
X153260747Y-78639401D01*
X153277223Y-78621223D01*
X153295401Y-78604747D01*
X153315107Y-78590132D01*
X153336150Y-78577520D01*
X153358329Y-78567030D01*
X153381428Y-78558765D01*
X153405227Y-78552804D01*
X153429495Y-78549204D01*
X153453999Y-78548000D01*
X154104001Y-78548000D01*
X154128505Y-78549204D01*
X154128505Y-78549204D01*
G37*
D11*
X153779000Y-79248000D03*
D10*
G36*
X156178505Y-78549204D02*
X156202773Y-78552804D01*
X156226572Y-78558765D01*
X156249671Y-78567030D01*
X156271850Y-78577520D01*
X156292893Y-78590132D01*
X156312599Y-78604747D01*
X156330777Y-78621223D01*
X156347253Y-78639401D01*
X156361868Y-78659107D01*
X156374480Y-78680150D01*
X156384970Y-78702329D01*
X156393235Y-78725428D01*
X156399196Y-78749227D01*
X156402796Y-78773495D01*
X156404000Y-78797999D01*
X156404000Y-79698001D01*
X156402796Y-79722505D01*
X156399196Y-79746773D01*
X156393235Y-79770572D01*
X156384970Y-79793671D01*
X156374480Y-79815850D01*
X156361868Y-79836893D01*
X156347253Y-79856599D01*
X156330777Y-79874777D01*
X156312599Y-79891253D01*
X156292893Y-79905868D01*
X156271850Y-79918480D01*
X156249671Y-79928970D01*
X156226572Y-79937235D01*
X156202773Y-79943196D01*
X156178505Y-79946796D01*
X156154001Y-79948000D01*
X155503999Y-79948000D01*
X155479495Y-79946796D01*
X155455227Y-79943196D01*
X155431428Y-79937235D01*
X155408329Y-79928970D01*
X155386150Y-79918480D01*
X155365107Y-79905868D01*
X155345401Y-79891253D01*
X155327223Y-79874777D01*
X155310747Y-79856599D01*
X155296132Y-79836893D01*
X155283520Y-79815850D01*
X155273030Y-79793671D01*
X155264765Y-79770572D01*
X155258804Y-79746773D01*
X155255204Y-79722505D01*
X155254000Y-79698001D01*
X155254000Y-78797999D01*
X155255204Y-78773495D01*
X155258804Y-78749227D01*
X155264765Y-78725428D01*
X155273030Y-78702329D01*
X155283520Y-78680150D01*
X155296132Y-78659107D01*
X155310747Y-78639401D01*
X155327223Y-78621223D01*
X155345401Y-78604747D01*
X155365107Y-78590132D01*
X155386150Y-78577520D01*
X155408329Y-78567030D01*
X155431428Y-78558765D01*
X155455227Y-78552804D01*
X155479495Y-78549204D01*
X155503999Y-78548000D01*
X156154001Y-78548000D01*
X156178505Y-78549204D01*
X156178505Y-78549204D01*
G37*
D11*
X155829000Y-79248000D03*
G04 #@! TD*
D10*
G04 #@! TO.C,R13*
G36*
X189198505Y-78549204D02*
X189222773Y-78552804D01*
X189246572Y-78558765D01*
X189269671Y-78567030D01*
X189291850Y-78577520D01*
X189312893Y-78590132D01*
X189332599Y-78604747D01*
X189350777Y-78621223D01*
X189367253Y-78639401D01*
X189381868Y-78659107D01*
X189394480Y-78680150D01*
X189404970Y-78702329D01*
X189413235Y-78725428D01*
X189419196Y-78749227D01*
X189422796Y-78773495D01*
X189424000Y-78797999D01*
X189424000Y-79698001D01*
X189422796Y-79722505D01*
X189419196Y-79746773D01*
X189413235Y-79770572D01*
X189404970Y-79793671D01*
X189394480Y-79815850D01*
X189381868Y-79836893D01*
X189367253Y-79856599D01*
X189350777Y-79874777D01*
X189332599Y-79891253D01*
X189312893Y-79905868D01*
X189291850Y-79918480D01*
X189269671Y-79928970D01*
X189246572Y-79937235D01*
X189222773Y-79943196D01*
X189198505Y-79946796D01*
X189174001Y-79948000D01*
X188523999Y-79948000D01*
X188499495Y-79946796D01*
X188475227Y-79943196D01*
X188451428Y-79937235D01*
X188428329Y-79928970D01*
X188406150Y-79918480D01*
X188385107Y-79905868D01*
X188365401Y-79891253D01*
X188347223Y-79874777D01*
X188330747Y-79856599D01*
X188316132Y-79836893D01*
X188303520Y-79815850D01*
X188293030Y-79793671D01*
X188284765Y-79770572D01*
X188278804Y-79746773D01*
X188275204Y-79722505D01*
X188274000Y-79698001D01*
X188274000Y-78797999D01*
X188275204Y-78773495D01*
X188278804Y-78749227D01*
X188284765Y-78725428D01*
X188293030Y-78702329D01*
X188303520Y-78680150D01*
X188316132Y-78659107D01*
X188330747Y-78639401D01*
X188347223Y-78621223D01*
X188365401Y-78604747D01*
X188385107Y-78590132D01*
X188406150Y-78577520D01*
X188428329Y-78567030D01*
X188451428Y-78558765D01*
X188475227Y-78552804D01*
X188499495Y-78549204D01*
X188523999Y-78548000D01*
X189174001Y-78548000D01*
X189198505Y-78549204D01*
X189198505Y-78549204D01*
G37*
D11*
X188849000Y-79248000D03*
D10*
G36*
X187148505Y-78549204D02*
X187172773Y-78552804D01*
X187196572Y-78558765D01*
X187219671Y-78567030D01*
X187241850Y-78577520D01*
X187262893Y-78590132D01*
X187282599Y-78604747D01*
X187300777Y-78621223D01*
X187317253Y-78639401D01*
X187331868Y-78659107D01*
X187344480Y-78680150D01*
X187354970Y-78702329D01*
X187363235Y-78725428D01*
X187369196Y-78749227D01*
X187372796Y-78773495D01*
X187374000Y-78797999D01*
X187374000Y-79698001D01*
X187372796Y-79722505D01*
X187369196Y-79746773D01*
X187363235Y-79770572D01*
X187354970Y-79793671D01*
X187344480Y-79815850D01*
X187331868Y-79836893D01*
X187317253Y-79856599D01*
X187300777Y-79874777D01*
X187282599Y-79891253D01*
X187262893Y-79905868D01*
X187241850Y-79918480D01*
X187219671Y-79928970D01*
X187196572Y-79937235D01*
X187172773Y-79943196D01*
X187148505Y-79946796D01*
X187124001Y-79948000D01*
X186473999Y-79948000D01*
X186449495Y-79946796D01*
X186425227Y-79943196D01*
X186401428Y-79937235D01*
X186378329Y-79928970D01*
X186356150Y-79918480D01*
X186335107Y-79905868D01*
X186315401Y-79891253D01*
X186297223Y-79874777D01*
X186280747Y-79856599D01*
X186266132Y-79836893D01*
X186253520Y-79815850D01*
X186243030Y-79793671D01*
X186234765Y-79770572D01*
X186228804Y-79746773D01*
X186225204Y-79722505D01*
X186224000Y-79698001D01*
X186224000Y-78797999D01*
X186225204Y-78773495D01*
X186228804Y-78749227D01*
X186234765Y-78725428D01*
X186243030Y-78702329D01*
X186253520Y-78680150D01*
X186266132Y-78659107D01*
X186280747Y-78639401D01*
X186297223Y-78621223D01*
X186315401Y-78604747D01*
X186335107Y-78590132D01*
X186356150Y-78577520D01*
X186378329Y-78567030D01*
X186401428Y-78558765D01*
X186425227Y-78552804D01*
X186449495Y-78549204D01*
X186473999Y-78548000D01*
X187124001Y-78548000D01*
X187148505Y-78549204D01*
X187148505Y-78549204D01*
G37*
D11*
X186799000Y-79248000D03*
G04 #@! TD*
D10*
G04 #@! TO.C,R14*
G36*
X199848505Y-78549204D02*
X199872773Y-78552804D01*
X199896572Y-78558765D01*
X199919671Y-78567030D01*
X199941850Y-78577520D01*
X199962893Y-78590132D01*
X199982599Y-78604747D01*
X200000777Y-78621223D01*
X200017253Y-78639401D01*
X200031868Y-78659107D01*
X200044480Y-78680150D01*
X200054970Y-78702329D01*
X200063235Y-78725428D01*
X200069196Y-78749227D01*
X200072796Y-78773495D01*
X200074000Y-78797999D01*
X200074000Y-79698001D01*
X200072796Y-79722505D01*
X200069196Y-79746773D01*
X200063235Y-79770572D01*
X200054970Y-79793671D01*
X200044480Y-79815850D01*
X200031868Y-79836893D01*
X200017253Y-79856599D01*
X200000777Y-79874777D01*
X199982599Y-79891253D01*
X199962893Y-79905868D01*
X199941850Y-79918480D01*
X199919671Y-79928970D01*
X199896572Y-79937235D01*
X199872773Y-79943196D01*
X199848505Y-79946796D01*
X199824001Y-79948000D01*
X199173999Y-79948000D01*
X199149495Y-79946796D01*
X199125227Y-79943196D01*
X199101428Y-79937235D01*
X199078329Y-79928970D01*
X199056150Y-79918480D01*
X199035107Y-79905868D01*
X199015401Y-79891253D01*
X198997223Y-79874777D01*
X198980747Y-79856599D01*
X198966132Y-79836893D01*
X198953520Y-79815850D01*
X198943030Y-79793671D01*
X198934765Y-79770572D01*
X198928804Y-79746773D01*
X198925204Y-79722505D01*
X198924000Y-79698001D01*
X198924000Y-78797999D01*
X198925204Y-78773495D01*
X198928804Y-78749227D01*
X198934765Y-78725428D01*
X198943030Y-78702329D01*
X198953520Y-78680150D01*
X198966132Y-78659107D01*
X198980747Y-78639401D01*
X198997223Y-78621223D01*
X199015401Y-78604747D01*
X199035107Y-78590132D01*
X199056150Y-78577520D01*
X199078329Y-78567030D01*
X199101428Y-78558765D01*
X199125227Y-78552804D01*
X199149495Y-78549204D01*
X199173999Y-78548000D01*
X199824001Y-78548000D01*
X199848505Y-78549204D01*
X199848505Y-78549204D01*
G37*
D11*
X199499000Y-79248000D03*
D10*
G36*
X201898505Y-78549204D02*
X201922773Y-78552804D01*
X201946572Y-78558765D01*
X201969671Y-78567030D01*
X201991850Y-78577520D01*
X202012893Y-78590132D01*
X202032599Y-78604747D01*
X202050777Y-78621223D01*
X202067253Y-78639401D01*
X202081868Y-78659107D01*
X202094480Y-78680150D01*
X202104970Y-78702329D01*
X202113235Y-78725428D01*
X202119196Y-78749227D01*
X202122796Y-78773495D01*
X202124000Y-78797999D01*
X202124000Y-79698001D01*
X202122796Y-79722505D01*
X202119196Y-79746773D01*
X202113235Y-79770572D01*
X202104970Y-79793671D01*
X202094480Y-79815850D01*
X202081868Y-79836893D01*
X202067253Y-79856599D01*
X202050777Y-79874777D01*
X202032599Y-79891253D01*
X202012893Y-79905868D01*
X201991850Y-79918480D01*
X201969671Y-79928970D01*
X201946572Y-79937235D01*
X201922773Y-79943196D01*
X201898505Y-79946796D01*
X201874001Y-79948000D01*
X201223999Y-79948000D01*
X201199495Y-79946796D01*
X201175227Y-79943196D01*
X201151428Y-79937235D01*
X201128329Y-79928970D01*
X201106150Y-79918480D01*
X201085107Y-79905868D01*
X201065401Y-79891253D01*
X201047223Y-79874777D01*
X201030747Y-79856599D01*
X201016132Y-79836893D01*
X201003520Y-79815850D01*
X200993030Y-79793671D01*
X200984765Y-79770572D01*
X200978804Y-79746773D01*
X200975204Y-79722505D01*
X200974000Y-79698001D01*
X200974000Y-78797999D01*
X200975204Y-78773495D01*
X200978804Y-78749227D01*
X200984765Y-78725428D01*
X200993030Y-78702329D01*
X201003520Y-78680150D01*
X201016132Y-78659107D01*
X201030747Y-78639401D01*
X201047223Y-78621223D01*
X201065401Y-78604747D01*
X201085107Y-78590132D01*
X201106150Y-78577520D01*
X201128329Y-78567030D01*
X201151428Y-78558765D01*
X201175227Y-78552804D01*
X201199495Y-78549204D01*
X201223999Y-78548000D01*
X201874001Y-78548000D01*
X201898505Y-78549204D01*
X201898505Y-78549204D01*
G37*
D11*
X201549000Y-79248000D03*
G04 #@! TD*
D10*
G04 #@! TO.C,R15*
G36*
X214598505Y-78549204D02*
X214622773Y-78552804D01*
X214646572Y-78558765D01*
X214669671Y-78567030D01*
X214691850Y-78577520D01*
X214712893Y-78590132D01*
X214732599Y-78604747D01*
X214750777Y-78621223D01*
X214767253Y-78639401D01*
X214781868Y-78659107D01*
X214794480Y-78680150D01*
X214804970Y-78702329D01*
X214813235Y-78725428D01*
X214819196Y-78749227D01*
X214822796Y-78773495D01*
X214824000Y-78797999D01*
X214824000Y-79698001D01*
X214822796Y-79722505D01*
X214819196Y-79746773D01*
X214813235Y-79770572D01*
X214804970Y-79793671D01*
X214794480Y-79815850D01*
X214781868Y-79836893D01*
X214767253Y-79856599D01*
X214750777Y-79874777D01*
X214732599Y-79891253D01*
X214712893Y-79905868D01*
X214691850Y-79918480D01*
X214669671Y-79928970D01*
X214646572Y-79937235D01*
X214622773Y-79943196D01*
X214598505Y-79946796D01*
X214574001Y-79948000D01*
X213923999Y-79948000D01*
X213899495Y-79946796D01*
X213875227Y-79943196D01*
X213851428Y-79937235D01*
X213828329Y-79928970D01*
X213806150Y-79918480D01*
X213785107Y-79905868D01*
X213765401Y-79891253D01*
X213747223Y-79874777D01*
X213730747Y-79856599D01*
X213716132Y-79836893D01*
X213703520Y-79815850D01*
X213693030Y-79793671D01*
X213684765Y-79770572D01*
X213678804Y-79746773D01*
X213675204Y-79722505D01*
X213674000Y-79698001D01*
X213674000Y-78797999D01*
X213675204Y-78773495D01*
X213678804Y-78749227D01*
X213684765Y-78725428D01*
X213693030Y-78702329D01*
X213703520Y-78680150D01*
X213716132Y-78659107D01*
X213730747Y-78639401D01*
X213747223Y-78621223D01*
X213765401Y-78604747D01*
X213785107Y-78590132D01*
X213806150Y-78577520D01*
X213828329Y-78567030D01*
X213851428Y-78558765D01*
X213875227Y-78552804D01*
X213899495Y-78549204D01*
X213923999Y-78548000D01*
X214574001Y-78548000D01*
X214598505Y-78549204D01*
X214598505Y-78549204D01*
G37*
D11*
X214249000Y-79248000D03*
D10*
G36*
X212548505Y-78549204D02*
X212572773Y-78552804D01*
X212596572Y-78558765D01*
X212619671Y-78567030D01*
X212641850Y-78577520D01*
X212662893Y-78590132D01*
X212682599Y-78604747D01*
X212700777Y-78621223D01*
X212717253Y-78639401D01*
X212731868Y-78659107D01*
X212744480Y-78680150D01*
X212754970Y-78702329D01*
X212763235Y-78725428D01*
X212769196Y-78749227D01*
X212772796Y-78773495D01*
X212774000Y-78797999D01*
X212774000Y-79698001D01*
X212772796Y-79722505D01*
X212769196Y-79746773D01*
X212763235Y-79770572D01*
X212754970Y-79793671D01*
X212744480Y-79815850D01*
X212731868Y-79836893D01*
X212717253Y-79856599D01*
X212700777Y-79874777D01*
X212682599Y-79891253D01*
X212662893Y-79905868D01*
X212641850Y-79918480D01*
X212619671Y-79928970D01*
X212596572Y-79937235D01*
X212572773Y-79943196D01*
X212548505Y-79946796D01*
X212524001Y-79948000D01*
X211873999Y-79948000D01*
X211849495Y-79946796D01*
X211825227Y-79943196D01*
X211801428Y-79937235D01*
X211778329Y-79928970D01*
X211756150Y-79918480D01*
X211735107Y-79905868D01*
X211715401Y-79891253D01*
X211697223Y-79874777D01*
X211680747Y-79856599D01*
X211666132Y-79836893D01*
X211653520Y-79815850D01*
X211643030Y-79793671D01*
X211634765Y-79770572D01*
X211628804Y-79746773D01*
X211625204Y-79722505D01*
X211624000Y-79698001D01*
X211624000Y-78797999D01*
X211625204Y-78773495D01*
X211628804Y-78749227D01*
X211634765Y-78725428D01*
X211643030Y-78702329D01*
X211653520Y-78680150D01*
X211666132Y-78659107D01*
X211680747Y-78639401D01*
X211697223Y-78621223D01*
X211715401Y-78604747D01*
X211735107Y-78590132D01*
X211756150Y-78577520D01*
X211778329Y-78567030D01*
X211801428Y-78558765D01*
X211825227Y-78552804D01*
X211849495Y-78549204D01*
X211873999Y-78548000D01*
X212524001Y-78548000D01*
X212548505Y-78549204D01*
X212548505Y-78549204D01*
G37*
D11*
X212199000Y-79248000D03*
G04 #@! TD*
D10*
G04 #@! TO.C,R16*
G36*
X225248505Y-78549204D02*
X225272773Y-78552804D01*
X225296572Y-78558765D01*
X225319671Y-78567030D01*
X225341850Y-78577520D01*
X225362893Y-78590132D01*
X225382599Y-78604747D01*
X225400777Y-78621223D01*
X225417253Y-78639401D01*
X225431868Y-78659107D01*
X225444480Y-78680150D01*
X225454970Y-78702329D01*
X225463235Y-78725428D01*
X225469196Y-78749227D01*
X225472796Y-78773495D01*
X225474000Y-78797999D01*
X225474000Y-79698001D01*
X225472796Y-79722505D01*
X225469196Y-79746773D01*
X225463235Y-79770572D01*
X225454970Y-79793671D01*
X225444480Y-79815850D01*
X225431868Y-79836893D01*
X225417253Y-79856599D01*
X225400777Y-79874777D01*
X225382599Y-79891253D01*
X225362893Y-79905868D01*
X225341850Y-79918480D01*
X225319671Y-79928970D01*
X225296572Y-79937235D01*
X225272773Y-79943196D01*
X225248505Y-79946796D01*
X225224001Y-79948000D01*
X224573999Y-79948000D01*
X224549495Y-79946796D01*
X224525227Y-79943196D01*
X224501428Y-79937235D01*
X224478329Y-79928970D01*
X224456150Y-79918480D01*
X224435107Y-79905868D01*
X224415401Y-79891253D01*
X224397223Y-79874777D01*
X224380747Y-79856599D01*
X224366132Y-79836893D01*
X224353520Y-79815850D01*
X224343030Y-79793671D01*
X224334765Y-79770572D01*
X224328804Y-79746773D01*
X224325204Y-79722505D01*
X224324000Y-79698001D01*
X224324000Y-78797999D01*
X224325204Y-78773495D01*
X224328804Y-78749227D01*
X224334765Y-78725428D01*
X224343030Y-78702329D01*
X224353520Y-78680150D01*
X224366132Y-78659107D01*
X224380747Y-78639401D01*
X224397223Y-78621223D01*
X224415401Y-78604747D01*
X224435107Y-78590132D01*
X224456150Y-78577520D01*
X224478329Y-78567030D01*
X224501428Y-78558765D01*
X224525227Y-78552804D01*
X224549495Y-78549204D01*
X224573999Y-78548000D01*
X225224001Y-78548000D01*
X225248505Y-78549204D01*
X225248505Y-78549204D01*
G37*
D11*
X224899000Y-79248000D03*
D10*
G36*
X227298505Y-78549204D02*
X227322773Y-78552804D01*
X227346572Y-78558765D01*
X227369671Y-78567030D01*
X227391850Y-78577520D01*
X227412893Y-78590132D01*
X227432599Y-78604747D01*
X227450777Y-78621223D01*
X227467253Y-78639401D01*
X227481868Y-78659107D01*
X227494480Y-78680150D01*
X227504970Y-78702329D01*
X227513235Y-78725428D01*
X227519196Y-78749227D01*
X227522796Y-78773495D01*
X227524000Y-78797999D01*
X227524000Y-79698001D01*
X227522796Y-79722505D01*
X227519196Y-79746773D01*
X227513235Y-79770572D01*
X227504970Y-79793671D01*
X227494480Y-79815850D01*
X227481868Y-79836893D01*
X227467253Y-79856599D01*
X227450777Y-79874777D01*
X227432599Y-79891253D01*
X227412893Y-79905868D01*
X227391850Y-79918480D01*
X227369671Y-79928970D01*
X227346572Y-79937235D01*
X227322773Y-79943196D01*
X227298505Y-79946796D01*
X227274001Y-79948000D01*
X226623999Y-79948000D01*
X226599495Y-79946796D01*
X226575227Y-79943196D01*
X226551428Y-79937235D01*
X226528329Y-79928970D01*
X226506150Y-79918480D01*
X226485107Y-79905868D01*
X226465401Y-79891253D01*
X226447223Y-79874777D01*
X226430747Y-79856599D01*
X226416132Y-79836893D01*
X226403520Y-79815850D01*
X226393030Y-79793671D01*
X226384765Y-79770572D01*
X226378804Y-79746773D01*
X226375204Y-79722505D01*
X226374000Y-79698001D01*
X226374000Y-78797999D01*
X226375204Y-78773495D01*
X226378804Y-78749227D01*
X226384765Y-78725428D01*
X226393030Y-78702329D01*
X226403520Y-78680150D01*
X226416132Y-78659107D01*
X226430747Y-78639401D01*
X226447223Y-78621223D01*
X226465401Y-78604747D01*
X226485107Y-78590132D01*
X226506150Y-78577520D01*
X226528329Y-78567030D01*
X226551428Y-78558765D01*
X226575227Y-78552804D01*
X226599495Y-78549204D01*
X226623999Y-78548000D01*
X227274001Y-78548000D01*
X227298505Y-78549204D01*
X227298505Y-78549204D01*
G37*
D11*
X226949000Y-79248000D03*
G04 #@! TD*
M02*
